<svg viewBox="0 0 2452 1510" version="1.2" xmlns="http://www.w3.org/2000/svg" xmlns:xlink="http://www.w3.org/1999/xlink">
<rect x="333.16" y="230.23" width="379.68" height="1119.31" fill="#DCDCDC"/>
<rect x="711.61" y="230.23" width="26.46" height="1119.31" fill="#0FF"/>
<path d="M1465.06 230.23H731V1349.54H930.53Z" fill="#00F"/>
<path d="M964.03 1349.54H892.45s-2.21-373.26.24-560.24c1.83-140.52-5.98-281.93 10.84-421.45 3.71-30.79 19.77-90.91 19.77-90.91 0 0 89.15 205.09 183.9 237.18 64.89 21.98 142.63-13.15 198.72-52.48 76.23-53.45 159.06-231.41 159.06-231.41h60.85v248.6Z" fill="#4B0078"/>
<path d="M1525.83 478.24S1360.3 639.38 1261.84 695.57c-44.54 25.42-95.28 65.04-144.85 51.88-74.58-19.81-150.52-175.9-150.52-175.9l-3.19 777.99h562.55Z"/>
<path d="M1296.42 1349.54H1184V1114.98a37 33 0 0 1 36.41-32.4c95.92.19 305.18-8.64 305.42-8.64v54.3c0 0-144.55.26-208.67 6.26-18.06 7.79-18.12 27.98-18.12 27.98Z" fill="#FFDCFF"/>
<path d="M1183.92 1349.92l.15-234.88c0 0 4.71-31.82 36.32-32.4 45.24-1.63 65.82 65.45 107.6 82.86 60.34 25.14 195.98 26.06 195.98 26.06l110.63-.91M1129.63 1350.4l-1.03-258.44c0 0-.39-22.56 22.05-51.68 10.7-13.69 15.3-19.83 15.3-19.83 0 0-97.89-106.98-128.06-171.68-56.99-122.24-68.72-261.12-92.92-393.8-13.43-73.63-29.02-224.3-29.02-224.3l-.53-74.99" fill="none" stroke="red" stroke-width="10"/>

<g fill="none" stroke="#000" stroke-width="2" stroke-opacity=".59">
<g id="gh5">
<g id="gh2">
<path id="gridH" d="M326.39 1349.54H1525.83m0-33.65H333.16m0-19.21H1525.83m0-14.44H333.16m0-11.99H1525.83m0-7.22H333.16m0-7.22H1525.83m0-7.22H333.16m0-4.77H1525.83"/>
<use xlink:href="#gridH" y="-111.82"/>
</g>
<use xlink:href="#gh2" y="-223.64"/>
<use xlink:href="#gridH" y="-447.28"/>
</g>
<use xlink:href="#gh5" y="-559.1"/>

<path id="gridV" d="M333.16 230.23V1359.14m119.11-2.46V230.23m69.72 0V1356.68m51.1 0V230.23m37.43 0V1356.68m32.29 0V230.23m25.51 0V1356.68m23.81 0V230.23m20.46 0V1356.68"/>
<use xlink:href="#gridV" x="397.29"/>
<use xlink:href="#gridV" x="794.57"/>

<path d="M326.39 230.23H1525.83V1359.14"/>
</g>

<g stroke="#000" stroke-width="8.22" stroke-linejoin="round" stroke-opacity=".59">
<path d="M1568.91 923.28h140.11v76.06H1568.91Z" fill="#FFDCFF"/>
<path d="M1568.91 372.74h140.11V448.8H1568.91Z" fill="#01FFFF"/>
<path d="M1568.91 510.37h140.11v76.06H1568.91Z" fill="#00F"/>
<path d="M1568.91 648.01h140.11v76.06H1568.91Z" fill="#4B0078"/>
<path d="M1568.91 785.65h140.11v76.06H1568.91Z"/>
<path d="M1568.91 235.1h140.11v76.06H1568.91Z" fill="#DCDCDC"/>
</g>

<path id="arrow" d="M964.32 179.78h18.79a18 5 45 0 0 15.12 12.2v1.64a18 5-45 0 0-15.16 12.49H964.25l13.22-8.98H940.05v-8.77h37.42Z" fill="red" stroke="red"/>
<use xlink:href="#arrow" transform="matrix(-1,0,0,1,1832,0)"/>
<use xlink:href="#arrow" transform="matrix(0,1,-1,0,1774,273)"/>
<use xlink:href="#arrow" transform="matrix(0,-1,-1,0,1774,2111)"/>

<g font-family="Times New Roman" font-size="48">
<text x="1192" y="90" font-size="100" text-anchor="middle">Remnants of massive single stars</text>
<g fill="red">
<text x="805" y="204" text-anchor="end">H envelope</text>
<text x="1023" y="204">no H envelope</text>
<text x="1612" y="1154">no H envelope</text>
<text x="1612" y="1254">H envelope</text>
</g>
<text x="235" y="230">10<tspan dy="-20" font-size="36">3</tspan></text>
<text x="235" y="342">10<tspan dy="-20" font-size="36">2</tspan></text>
<text x="235" y="454">10<tspan dy="-20" font-size="36">1</tspan></text>
<text x="205" y="556" text-anchor="middle">(Sun)</text>
<text x="285" y="566">1</text>
<text x="235" y="678">10<tspan dy="-20" font-size="36">-1</tspan></text>
<text x="235" y="790">10<tspan dy="-20" font-size="36">-2</tspan></text>
<text x="235" y="902">10<tspan dy="-20" font-size="36">-3</tspan></text>
<text x="235" y="1014">10<tspan dy="-20" font-size="36">-4</tspan></text>
<text x="235" y="1126">10<tspan dy="-20" font-size="36">-5</tspan></text>
<text x="235" y="1238">10<tspan dy="-20" font-size="36">-6</tspan></text>
<text x="315" y="1342" text-anchor="end">Metal-free</text>
<text x="688" y="1425">10<tspan dy="-20" font-size="36">1</tspan></text>
<text x="1084" y="1425">10<tspan dy="-20" font-size="36">2</tspan></text>
<text x="1480" y="1425">10<tspan dy="-20" font-size="36">3</tspan></text>
<g font-size="56">
<text x="926" y="1478" text-anchor="middle">Initial mass (solar masses)</text>
<text x="-916" y="182" transform="rotate(-90)">Metallicity</text>
<text x="1740" y="288">White dwarfs<tspan dy="12" font-size="36">(low mass)</tspan></text>
<text x="1740" y="426">Electron capture collapse</text>
<text x="1740" y="562">Neutron stars<tspan dy="12" font-size="36">(iron collapse)</tspan></text>
<text x="1740" y="698">Black hole by fallback<tspan dy="12" font-size="36">(weak SN)</tspan></text>
<text x="1740" y="846">Direct black hole</text>
<text x="1740" y="980">No remnants</text>
</g>
</g>
</svg>