<?xml version="1.0" encoding="utf-8"?>
<!-- Generator: Adobe Illustrator 15.0.1, SVG Export Plug-In . SVG Version: 6.00 Build 0)  -->
<!DOCTYPE svg PUBLIC "-//W3C//DTD SVG 1.1//EN" "http://www.w3.org/Graphics/SVG/1.1/DTD/svg11.dtd">
<svg version="1.1" id="Ebene_1" xmlns="http://www.w3.org/2000/svg" xmlns:xlink="http://www.w3.org/1999/xlink" x="0px" y="0px"
	 width="888px" height="511px" viewBox="0 0 888 511" enable-background="new 0 0 888 511" xml:space="preserve">
<rect fill="#FFFFFF" width="888" height="511"/>
<radialGradient id="SVGID_1_" cx="249.8574" cy="253.8252" r="217.4412" gradientUnits="userSpaceOnUse">
	<stop  offset="0" style="stop-color:#9D461A"/>
	<stop  offset="1" style="stop-color:#5C2F2E"/>
</radialGradient>
<ellipse fill="url(#SVGID_1_)" cx="249.857" cy="253.825" rx="215.871" ry="219"/>
<g>
	<defs>
		<rect id="SVGID_2_" x="113" y="-12" width="137.857" height="539"/>
	</defs>
	<clipPath id="SVGID_3_">
		<use xlink:href="#SVGID_2_"  overflow="visible"/>
	</clipPath>
	<ellipse clip-path="url(#SVGID_3_)" fill="#C8C8C8" cx="250.858" cy="253.825" rx="71.238" ry="219"/>
</g>
<g>
	<defs>
		<rect id="SVGID_4_" x="249.857" y="-81" width="302.143" height="592"/>
	</defs>
	<clipPath id="SVGID_5_">
		<use xlink:href="#SVGID_4_"  overflow="visible"/>
	</clipPath>
	<ellipse clip-path="url(#SVGID_5_)" fill="#C8C8C8" cx="249.857" cy="253.825" rx="215.871" ry="219"/>
</g>
<g>
	<defs>
		<rect id="SVGID_6_" x="34.715" y="26" width="216.143" height="482"/>
	</defs>
	<clipPath id="SVGID_7_">
		<use xlink:href="#SVGID_6_"  overflow="visible"/>
	</clipPath>
	
		<radialGradient id="SVGID_8_" cx="252.7705" cy="253.8252" r="198.5764" gradientTransform="matrix(0.3432 0 0 1.08 164.1065 -20.3058)" gradientUnits="userSpaceOnUse">
		<stop  offset="0.1758" style="stop-color:#963735"/>
		<stop  offset="0.1831" style="stop-color:#9C403E"/>
		<stop  offset="0.2091" style="stop-color:#AF5A59"/>
		<stop  offset="0.239" style="stop-color:#BF706F"/>
		<stop  offset="0.2738" style="stop-color:#CB8180"/>
		<stop  offset="0.317" style="stop-color:#D38C8B"/>
		<stop  offset="0.3775" style="stop-color:#D89392"/>
		<stop  offset="0.5455" style="stop-color:#D99594"/>
		<stop  offset="0.582" style="stop-color:#DFA5A3"/>
		<stop  offset="0.6299" style="stop-color:#E3B0AF"/>
		<stop  offset="0.6974" style="stop-color:#E5B7B5"/>
		<stop  offset="0.8848" style="stop-color:#E6B9B7"/>
		<stop  offset="0.8967" style="stop-color:#EBC8C6"/>
		<stop  offset="0.913" style="stop-color:#EFD3D1"/>
		<stop  offset="0.9361" style="stop-color:#F1DAD8"/>
		<stop  offset="1" style="stop-color:#F2DCDA"/>
	</radialGradient>
	<ellipse clip-path="url(#SVGID_7_)" fill="url(#SVGID_8_)" cx="250.857" cy="253.825" rx="67.659" ry="216"/>
</g>
<g>
	<defs>
		<rect id="SVGID_9_" x="249.857" y="30" width="271.143" height="478"/>
	</defs>
	<clipPath id="SVGID_10_">
		<use xlink:href="#SVGID_9_"  overflow="visible"/>
	</clipPath>
	<radialGradient id="SVGID_11_" cx="249.8574" cy="253.8252" r="214.4626" gradientUnits="userSpaceOnUse">
		<stop  offset="0.1758" style="stop-color:#963735"/>
		<stop  offset="0.1831" style="stop-color:#9C403E"/>
		<stop  offset="0.2091" style="stop-color:#AF5A59"/>
		<stop  offset="0.239" style="stop-color:#BF706F"/>
		<stop  offset="0.2738" style="stop-color:#CB8180"/>
		<stop  offset="0.317" style="stop-color:#D38C8B"/>
		<stop  offset="0.3775" style="stop-color:#D89392"/>
		<stop  offset="0.5455" style="stop-color:#D99594"/>
		<stop  offset="0.582" style="stop-color:#DFA5A3"/>
		<stop  offset="0.6299" style="stop-color:#E3B0AF"/>
		<stop  offset="0.6974" style="stop-color:#E5B7B5"/>
		<stop  offset="0.8848" style="stop-color:#E6B9B7"/>
		<stop  offset="0.8967" style="stop-color:#EBC8C6"/>
		<stop  offset="0.913" style="stop-color:#EFD3D1"/>
		<stop  offset="0.9361" style="stop-color:#F1DAD8"/>
		<stop  offset="1" style="stop-color:#F2DCDA"/>
	</radialGradient>
	<ellipse clip-path="url(#SVGID_10_)" fill="url(#SVGID_11_)" cx="249.857" cy="253.825" rx="212.914" ry="216"/>
</g>
<g>
	<g>
		<line fill="none" stroke="#640000" stroke-width="3" stroke-miterlimit="10" x1="288.138" y1="298.707" x2="491.784" y2="434"/>
		<g>
			<polygon fill="#640000" points="288.469,308.951 266.199,283.7 298.115,294.432 			"/>
		</g>
	</g>
</g>
<g>
	<g>
		<line fill="none" stroke="#640000" stroke-width="3" stroke-miterlimit="10" x1="377.271" y1="268.316" x2="491.784" y2="302"/>
		<g>
			<polygon fill="#640000" points="380.618,278.004 351.875,260.471 385.537,261.281 			"/>
		</g>
	</g>
</g>
<g>
	<path fill="#B09000" d="M525.75,63.343c0,4.116-2.874,5.91-5.541,5.91c-2.989,0-5.335-2.208-5.335-5.726
		c0-3.702,2.46-5.887,5.519-5.887C523.589,57.641,525.75,59.963,525.75,63.343z M516.943,63.458c0,2.438,1.38,4.277,3.357,4.277
		c1.932,0,3.38-1.817,3.38-4.323c0-1.885-0.942-4.254-3.334-4.254C517.979,59.158,516.943,61.366,516.943,63.458z"/>
	<path fill="#B09000" d="M537.618,65.942c0,1.172,0.023,2.184,0.093,3.058h-1.794l-0.115-1.816h-0.046
		c-0.506,0.896-1.701,2.069-3.679,2.069c-1.748,0-3.841-0.989-3.841-4.875v-6.507h2.023v6.14c0,2.115,0.667,3.564,2.483,3.564
		c1.357,0,2.3-0.943,2.668-1.862c0.115-0.276,0.184-0.644,0.184-1.035v-6.806h2.023V65.942z"/>
	<path fill="#B09000" d="M543.416,55.203v2.667h2.897v1.541h-2.897v6.001c0,1.38,0.391,2.162,1.518,2.162
		c0.552,0,0.874-0.046,1.173-0.138l0.092,1.541c-0.391,0.138-1.012,0.276-1.794,0.276c-0.942,0-1.701-0.322-2.185-0.851
		c-0.552-0.621-0.781-1.61-0.781-2.92v-6.071h-1.725v-1.541h1.725v-2.07L543.416,55.203z"/>
	<path fill="#B09000" d="M549.58,63.803c0.046,2.736,1.771,3.863,3.816,3.863c1.449,0,2.346-0.253,3.082-0.575l0.368,1.449
		c-0.713,0.322-1.955,0.713-3.726,0.713c-3.427,0-5.473-2.276-5.473-5.634s1.978-5.979,5.22-5.979c3.656,0,4.599,3.173,4.599,5.22
		c0,0.414-0.022,0.713-0.068,0.943H549.58z M555.513,62.354c0.022-1.265-0.529-3.265-2.806-3.265c-2.069,0-2.943,1.862-3.104,3.265
		H555.513z"/>
	<path fill="#B09000" d="M559.977,61.343c0-1.311-0.023-2.438-0.092-3.472h1.771l0.092,2.208h0.069
		c0.506-1.495,1.747-2.438,3.104-2.438c0.207,0,0.368,0.023,0.553,0.046v1.909c-0.207-0.046-0.414-0.046-0.69-0.046
		c-1.426,0-2.438,1.058-2.713,2.576C562.023,62.4,562,62.745,562,63.067V69h-2.023V61.343z"/>
	<path fill="#B09000" d="M580.307,68.609c-0.529,0.253-1.702,0.644-3.196,0.644c-3.357,0-5.542-2.276-5.542-5.68
		c0-3.426,2.346-5.933,5.979-5.933c1.195,0,2.254,0.299,2.806,0.598l-0.46,1.541c-0.483-0.253-1.242-0.529-2.346-0.529
		c-2.553,0-3.933,1.909-3.933,4.208c0,2.576,1.656,4.162,3.863,4.162c1.15,0,1.909-0.276,2.483-0.529L580.307,68.609z"/>
	<path fill="#B09000" d="M582.677,61.343c0-1.311-0.023-2.438-0.092-3.472h1.771l0.092,2.208h0.069
		c0.506-1.495,1.747-2.438,3.104-2.438c0.206,0,0.367,0.023,0.552,0.046v1.909c-0.207-0.046-0.414-0.046-0.69-0.046
		c-1.426,0-2.438,1.058-2.713,2.576c-0.046,0.276-0.069,0.621-0.069,0.943V69h-2.023V61.343z"/>
	<path fill="#B09000" d="M599.511,65.942c0,1.172,0.023,2.184,0.093,3.058h-1.794l-0.115-1.816h-0.046
		c-0.506,0.896-1.701,2.069-3.679,2.069c-1.748,0-3.841-0.989-3.841-4.875v-6.507h2.023v6.14c0,2.115,0.667,3.564,2.483,3.564
		c1.357,0,2.3-0.943,2.668-1.862c0.115-0.276,0.184-0.644,0.184-1.035v-6.806h2.023V65.942z"/>
	<path fill="#B09000" d="M602.595,66.954c0.621,0.368,1.679,0.782,2.69,0.782c1.449,0,2.139-0.713,2.139-1.656
		c0-0.966-0.574-1.472-2.046-2.023c-2.024-0.736-2.967-1.817-2.967-3.15c0-1.793,1.472-3.265,3.84-3.265
		c1.127,0,2.116,0.299,2.714,0.689l-0.483,1.472c-0.437-0.276-1.241-0.667-2.276-0.667c-1.195,0-1.84,0.69-1.84,1.518
		c0,0.92,0.645,1.333,2.093,1.909c1.909,0.713,2.921,1.679,2.921,3.334c0,1.978-1.541,3.357-4.14,3.357
		c-1.219,0-2.346-0.322-3.127-0.782L602.595,66.954z"/>
	<path fill="#B09000" d="M614.416,55.203v2.667h2.897v1.541h-2.897v6.001c0,1.38,0.391,2.162,1.518,2.162
		c0.552,0,0.874-0.046,1.173-0.138l0.092,1.541c-0.391,0.138-1.012,0.276-1.794,0.276c-0.942,0-1.701-0.322-2.185-0.851
		c-0.552-0.621-0.781-1.61-0.781-2.92v-6.071h-1.725v-1.541h1.725v-2.07L614.416,55.203z"/>
	<path fill="#B09000" d="M633.779,61.366c0,5.082-1.908,7.887-5.196,7.887c-2.921,0-4.921-2.736-4.967-7.68
		c0-5.036,2.185-7.772,5.22-7.772C631.963,53.8,633.779,56.605,633.779,61.366z M625.662,61.596c0,3.886,1.196,6.094,3.036,6.094
		c2.046,0,3.035-2.415,3.035-6.232c0-3.679-0.92-6.094-3.035-6.094C626.95,55.364,625.662,57.525,625.662,61.596z"/>
	<path fill="#B09000" d="M635.782,67.804c0-0.828,0.575-1.449,1.38-1.449s1.357,0.598,1.357,1.449c0,0.828-0.553,1.449-1.403,1.449
		C636.335,69.253,635.782,68.632,635.782,67.804z"/>
	<path fill="#B09000" d="M640.865,66.701c0.575,0.345,1.886,0.919,3.312,0.919c2.575,0,3.403-1.632,3.38-2.897
		c-0.022-2.093-1.908-2.99-3.863-2.99h-1.126v-1.518h1.126c1.472,0,3.335-0.759,3.335-2.529c0-1.196-0.759-2.253-2.622-2.253
		c-1.195,0-2.345,0.529-2.989,0.989l-0.552-1.472c0.805-0.575,2.322-1.15,3.933-1.15c2.943,0,4.276,1.748,4.276,3.564
		c0,1.563-0.942,2.874-2.759,3.541v0.046c1.839,0.345,3.311,1.725,3.334,3.817c0,2.391-1.886,4.484-5.45,4.484
		c-1.679,0-3.15-0.529-3.886-1.012L640.865,66.701z"/>
	<path fill="#B09000" d="M657.516,62.056v1.472h-5.68v-1.472H657.516z"/>
	<path fill="#B09000" d="M669.198,61.366c0,5.082-1.908,7.887-5.196,7.887c-2.921,0-4.921-2.736-4.967-7.68
		c0-5.036,2.185-7.772,5.22-7.772C667.382,53.8,669.198,56.605,669.198,61.366z M661.081,61.596c0,3.886,1.196,6.094,3.036,6.094
		c2.046,0,3.035-2.415,3.035-6.232c0-3.679-0.92-6.094-3.035-6.094C662.369,55.364,661.081,57.525,661.081,61.596z"/>
	<path fill="#B09000" d="M671.201,67.804c0-0.828,0.575-1.449,1.38-1.449s1.357,0.598,1.357,1.449c0,0.828-0.553,1.449-1.403,1.449
		C671.754,69.253,671.201,68.632,671.201,67.804z"/>
	<path fill="#B09000" d="M684.724,55.755h-5.703l-0.575,3.84c0.346-0.046,0.667-0.069,1.219-0.069c1.173,0,2.3,0.23,3.22,0.805
		c1.173,0.644,2.139,1.955,2.139,3.817c0,2.92-2.322,5.105-5.564,5.105c-1.633,0-2.99-0.46-3.726-0.92l0.506-1.541
		c0.621,0.368,1.84,0.828,3.22,0.828c1.885,0,3.541-1.242,3.518-3.242c0-1.932-1.311-3.288-4.276-3.288
		c-0.874,0-1.541,0.069-2.093,0.138l0.966-7.174h7.151V55.755z"/>
	<path fill="#B09000" d="M695.121,62.975h0.046c0.275-0.391,0.644-0.874,0.966-1.265l3.288-3.84h2.414l-4.277,4.576L702.456,69
		h-2.483l-3.817-5.335l-1.034,1.15V69h-2.001V52.673h2.001V62.975z"/>
	<path fill="#B09000" d="M704.298,60.883c0-1.173-0.046-2.093-0.092-3.012h1.771l0.092,1.816h0.069
		c0.62-1.058,1.655-2.046,3.518-2.046c1.495,0,2.645,0.919,3.128,2.23h0.046c0.345-0.644,0.805-1.104,1.265-1.449
		c0.667-0.506,1.38-0.782,2.438-0.782c1.494,0,3.679,0.966,3.679,4.829V69h-1.978v-6.278c0-2.161-0.805-3.426-2.414-3.426
		c-1.173,0-2.047,0.851-2.415,1.817c-0.092,0.299-0.16,0.644-0.16,1.012V69h-1.978v-6.668c0-1.771-0.782-3.036-2.323-3.036
		c-1.241,0-2.185,1.012-2.506,2.024c-0.115,0.276-0.161,0.644-0.161,0.989V69h-1.978V60.883z"/>
	<path d="M520.104,78.1c0,1.176-0.867,2.128-2.296,2.128c-1.344,0-2.212-0.952-2.212-2.128c0-1.204,0.896-2.128,2.269-2.128
		S520.076,76.896,520.104,78.1z M515.708,95.6V81.908h4.256V95.6H515.708z"/>
	<path d="M536.904,88.6c0,5.012-3.557,7.308-7.225,7.308c-4.004,0-7.084-2.632-7.084-7.056c0-4.452,2.912-7.28,7.336-7.28
		C534.104,81.572,536.904,84.456,536.904,88.6z M526.992,88.74c0,2.352,0.979,4.116,2.8,4.116c1.68,0,2.716-1.652,2.716-4.144
		c0-2.016-0.784-4.088-2.716-4.088C527.775,84.624,526.992,86.724,526.992,88.74z"/>
	<path d="M539.535,86.276c0-1.708-0.056-3.136-0.112-4.368h3.696l0.196,1.904h0.084c0.56-0.896,1.932-2.212,4.228-2.212
		c2.8,0,4.9,1.876,4.9,5.908V95.6h-4.256v-7.588c0-1.764-0.616-2.968-2.156-2.968c-1.176,0-1.876,0.812-2.185,1.596
		c-0.111,0.28-0.14,0.672-0.14,1.064V95.6h-4.256V86.276z"/>
	<path d="M555.915,91.904c0.784,0.476,2.408,1.008,3.668,1.008c1.288,0,1.82-0.42,1.82-1.12c0-0.728-0.42-1.064-1.988-1.596
		c-2.855-0.952-3.947-2.492-3.92-4.116c0-2.576,2.185-4.508,5.572-4.508c1.596,0,2.996,0.392,3.836,0.812l-0.728,2.94
		c-0.616-0.336-1.82-0.784-2.969-0.784c-1.036,0-1.624,0.42-1.624,1.092c0,0.672,0.532,1.008,2.212,1.596
		c2.604,0.896,3.668,2.24,3.696,4.228c0,2.576-1.988,4.452-5.908,4.452c-1.792,0-3.388-0.42-4.424-0.98L555.915,91.904z"/>
	<path d="M566.136,98.932c0.896-2.492,1.651-5.404,2.044-7.952l4.34-0.28c-0.924,2.856-2.185,5.796-3.528,7.98L566.136,98.932z"/>
	<path d="M584.027,90.112c0.111,1.764,1.876,2.604,3.863,2.604c1.456,0,2.632-0.196,3.78-0.588l0.56,2.884
		c-1.399,0.588-3.107,0.868-4.955,0.868c-4.648,0-7.309-2.688-7.309-6.972c0-3.472,2.156-7.308,6.916-7.308
		c4.424,0,6.104,3.444,6.104,6.832c0,0.728-0.084,1.372-0.141,1.68H584.027z M589.039,87.2c0-1.036-0.448-2.772-2.408-2.772
		c-1.792,0-2.52,1.652-2.632,2.772H589.039z"/>
	<path d="M595.535,75.72h4.256V95.6h-4.256V75.72z"/>
	<path d="M606.512,90.112c0.111,1.764,1.876,2.604,3.863,2.604c1.456,0,2.632-0.196,3.78-0.588l0.56,2.884
		c-1.399,0.588-3.107,0.868-4.955,0.868c-4.648,0-7.309-2.688-7.309-6.972c0-3.472,2.156-7.308,6.916-7.308
		c4.424,0,6.104,3.444,6.104,6.832c0,0.728-0.084,1.372-0.141,1.68H606.512z M611.523,87.2c0-1.036-0.448-2.772-2.408-2.772
		c-1.792,0-2.52,1.652-2.632,2.772H611.523z"/>
	<path d="M628.295,95.236c-0.757,0.364-2.185,0.644-3.809,0.644c-4.424,0-7.252-2.716-7.252-7c0-4.004,2.744-7.28,7.84-7.28
		c1.12,0,2.353,0.196,3.248,0.532l-0.672,3.164c-0.504-0.224-1.26-0.42-2.38-0.42c-2.24,0-3.696,1.596-3.668,3.836
		c0,2.492,1.68,3.836,3.752,3.836c1.008,0,1.792-0.168,2.436-0.448L628.295,95.236z"/>
	<path d="M635.854,78.212v3.696h3.052v3.136h-3.052V90c0,1.652,0.42,2.408,1.681,2.408c0.588,0,0.867-0.028,1.26-0.112l0.027,3.22
		c-0.531,0.196-1.567,0.364-2.743,0.364c-1.372,0-2.521-0.476-3.221-1.176c-0.784-0.812-1.176-2.128-1.176-4.06v-5.6h-1.82v-3.136
		h1.82V79.36L635.854,78.212z"/>
	<path d="M641.37,86.416c0-2.016-0.028-3.332-0.112-4.508h3.641l0.168,2.52h0.111c0.7-2.016,2.353-2.856,3.696-2.856
		c0.392,0,0.588,0.028,0.896,0.084v4.004c-0.337-0.056-0.673-0.112-1.148-0.112c-1.568,0-2.632,0.84-2.912,2.156
		c-0.056,0.28-0.084,0.616-0.084,0.952V95.6h-4.256V86.416z"/>
	<path d="M665.311,88.6c0,5.012-3.557,7.308-7.225,7.308c-4.004,0-7.084-2.632-7.084-7.056c0-4.452,2.912-7.28,7.336-7.28
		C662.51,81.572,665.311,84.456,665.311,88.6z M655.398,88.74c0,2.352,0.979,4.116,2.8,4.116c1.68,0,2.716-1.652,2.716-4.144
		c0-2.016-0.784-4.088-2.716-4.088C656.182,84.624,655.398,86.724,655.398,88.74z"/>
	<path d="M667.941,86.276c0-1.708-0.056-3.136-0.112-4.368h3.696l0.196,1.904h0.084c0.56-0.896,1.932-2.212,4.228-2.212
		c2.8,0,4.9,1.876,4.9,5.908V95.6h-4.256v-7.588c0-1.764-0.616-2.968-2.156-2.968c-1.176,0-1.876,0.812-2.185,1.596
		c-0.111,0.28-0.14,0.672-0.14,1.064V95.6h-4.256V86.276z"/>
	<path d="M684.321,91.904c0.784,0.476,2.408,1.008,3.668,1.008c1.288,0,1.82-0.42,1.82-1.12c0-0.728-0.42-1.064-1.988-1.596
		c-2.855-0.952-3.947-2.492-3.92-4.116c0-2.576,2.185-4.508,5.572-4.508c1.596,0,2.996,0.392,3.836,0.812l-0.728,2.94
		c-0.616-0.336-1.82-0.784-2.969-0.784c-1.036,0-1.624,0.42-1.624,1.092c0,0.672,0.532,1.008,2.212,1.596
		c2.604,0.896,3.668,2.24,3.696,4.228c0,2.576-1.988,4.452-5.908,4.452c-1.792,0-3.388-0.42-4.424-0.98L684.321,91.904z"/>
</g>
<g>
	<path fill="#B09000" d="M517.933,158.743c0,0.69-0.483,1.242-1.288,1.242c-0.736,0-1.219-0.552-1.219-1.242
		s0.506-1.265,1.265-1.265C517.426,157.479,517.933,158.03,517.933,158.743z M515.679,173v-11.129h2.023V173H515.679z"/>
	<path fill="#B09000" d="M521.061,164.883c0-1.173-0.023-2.093-0.092-3.012h1.793l0.115,1.839h0.046
		c0.552-1.035,1.84-2.069,3.68-2.069c1.54,0,3.932,0.919,3.932,4.737V173h-2.023v-6.416c0-1.793-0.667-3.289-2.575-3.289
		c-1.311,0-2.346,0.943-2.714,2.07c-0.092,0.253-0.138,0.598-0.138,0.943V173h-2.023V164.883z"/>
	<path fill="#B09000" d="M533.825,164.883c0-1.173-0.023-2.093-0.092-3.012h1.793l0.115,1.839h0.046
		c0.552-1.035,1.84-2.069,3.68-2.069c1.54,0,3.932,0.919,3.932,4.737V173h-2.023v-6.416c0-1.793-0.667-3.289-2.575-3.289
		c-1.311,0-2.346,0.943-2.714,2.07c-0.092,0.253-0.138,0.598-0.138,0.943V173h-2.023V164.883z"/>
	<path fill="#B09000" d="M547.717,167.803c0.046,2.736,1.771,3.863,3.816,3.863c1.449,0,2.346-0.253,3.082-0.575l0.368,1.449
		c-0.713,0.322-1.955,0.713-3.726,0.713c-3.427,0-5.473-2.276-5.473-5.634s1.978-5.979,5.22-5.979c3.656,0,4.599,3.173,4.599,5.22
		c0,0.414-0.022,0.713-0.068,0.943H547.717z M553.649,166.354c0.022-1.265-0.529-3.265-2.806-3.265
		c-2.069,0-2.943,1.862-3.104,3.265H553.649z"/>
	<path fill="#B09000" d="M558.113,165.343c0-1.311-0.023-2.438-0.092-3.472h1.771l0.092,2.208h0.069
		c0.506-1.495,1.747-2.438,3.104-2.438c0.207,0,0.368,0.023,0.553,0.046v1.909c-0.207-0.046-0.414-0.046-0.69-0.046
		c-1.426,0-2.438,1.058-2.713,2.576c-0.046,0.276-0.069,0.621-0.069,0.943V173h-2.023V165.343z"/>
	<path fill="#B09000" d="M578.443,172.609c-0.529,0.253-1.702,0.644-3.196,0.644c-3.357,0-5.542-2.276-5.542-5.68
		c0-3.426,2.346-5.933,5.979-5.933c1.195,0,2.254,0.299,2.806,0.598l-0.46,1.541c-0.483-0.253-1.242-0.529-2.346-0.529
		c-2.553,0-3.933,1.909-3.933,4.208c0,2.576,1.656,4.162,3.863,4.162c1.15,0,1.909-0.276,2.483-0.529L578.443,172.609z"/>
	<path fill="#B09000" d="M580.813,165.343c0-1.311-0.023-2.438-0.092-3.472h1.771l0.092,2.208h0.069
		c0.506-1.495,1.747-2.438,3.104-2.438c0.206,0,0.367,0.023,0.552,0.046v1.909c-0.207-0.046-0.414-0.046-0.69-0.046
		c-1.426,0-2.438,1.058-2.713,2.576c-0.046,0.276-0.069,0.621-0.069,0.943V173h-2.023V165.343z"/>
	<path fill="#B09000" d="M597.647,169.942c0,1.172,0.023,2.184,0.093,3.058h-1.794l-0.115-1.816h-0.046
		c-0.506,0.896-1.701,2.069-3.679,2.069c-1.748,0-3.841-0.989-3.841-4.875v-6.507h2.023v6.14c0,2.115,0.667,3.564,2.483,3.564
		c1.357,0,2.3-0.943,2.668-1.862c0.115-0.276,0.184-0.644,0.184-1.035v-6.806h2.023V169.942z"/>
	<path fill="#B09000" d="M600.731,170.954c0.621,0.368,1.679,0.782,2.69,0.782c1.449,0,2.139-0.713,2.139-1.656
		c0-0.966-0.574-1.472-2.046-2.023c-2.024-0.736-2.967-1.817-2.967-3.15c0-1.793,1.472-3.265,3.84-3.265
		c1.127,0,2.116,0.299,2.714,0.689l-0.483,1.472c-0.437-0.276-1.241-0.667-2.276-0.667c-1.195,0-1.84,0.69-1.84,1.518
		c0,0.92,0.645,1.333,2.093,1.909c1.909,0.713,2.921,1.679,2.921,3.334c0,1.978-1.541,3.357-4.14,3.357
		c-1.219,0-2.346-0.322-3.127-0.782L600.731,170.954z"/>
	<path fill="#B09000" d="M612.553,159.203v2.667h2.897v1.541h-2.897v6.001c0,1.38,0.391,2.162,1.518,2.162
		c0.552,0,0.874-0.046,1.173-0.138l0.092,1.541c-0.391,0.138-1.012,0.276-1.794,0.276c-0.942,0-1.701-0.322-2.185-0.851
		c-0.552-0.621-0.781-1.61-0.781-2.92v-6.071h-1.725v-1.541h1.725v-2.07L612.553,159.203z"/>
	<path fill="#B09000" d="M626.353,159.939h-0.046l-2.599,1.402l-0.391-1.541l3.266-1.748h1.725V173h-1.955V159.939z"/>
	<path fill="#B09000" d="M639.093,166.056v1.472h-5.68v-1.472H639.093z"/>
	<path fill="#B09000" d="M640.82,173v-1.242l1.586-1.541c3.817-3.633,5.565-5.565,5.565-7.818c0-1.518-0.713-2.92-2.943-2.92
		c-1.357,0-2.483,0.69-3.174,1.265l-0.644-1.426c1.012-0.851,2.507-1.518,4.208-1.518c3.22,0,4.576,2.208,4.576,4.346
		c0,2.759-2.001,4.99-5.151,8.025l-1.173,1.104v0.046h6.692V173H640.82z"/>
	<path fill="#B09000" d="M660.139,166.975h0.046c0.275-0.391,0.644-0.874,0.966-1.265l3.288-3.84h2.414l-4.277,4.576l4.898,6.554
		h-2.483l-3.817-5.335l-1.034,1.15V173h-2.001v-16.327h2.001V166.975z"/>
	<path fill="#B09000" d="M669.315,164.883c0-1.173-0.046-2.093-0.092-3.012h1.771l0.092,1.816h0.069
		c0.62-1.058,1.655-2.046,3.518-2.046c1.495,0,2.645,0.919,3.128,2.23h0.046c0.345-0.644,0.805-1.104,1.265-1.449
		c0.667-0.506,1.38-0.782,2.438-0.782c1.494,0,3.679,0.966,3.679,4.829V173h-1.978v-6.278c0-2.161-0.805-3.426-2.414-3.426
		c-1.173,0-2.047,0.851-2.415,1.817c-0.092,0.299-0.16,0.644-0.16,1.012V173h-1.978v-6.668c0-1.771-0.782-3.036-2.323-3.036
		c-1.241,0-2.185,1.012-2.506,2.024c-0.115,0.276-0.161,0.644-0.161,0.989V173h-1.978V164.883z"/>
	<path d="M518.984,194.112c0.111,1.764,1.876,2.604,3.863,2.604c1.456,0,2.632-0.196,3.78-0.588l0.56,2.884
		c-1.399,0.588-3.107,0.868-4.955,0.868c-4.648,0-7.309-2.688-7.309-6.972c0-3.472,2.156-7.308,6.916-7.308
		c4.424,0,6.104,3.444,6.104,6.832c0,0.728-0.084,1.372-0.141,1.68H518.984z M523.996,191.2c0-1.036-0.448-2.772-2.408-2.772
		c-1.792,0-2.52,1.652-2.632,2.772H523.996z"/>
	<path d="M530.492,179.72h4.256v19.88h-4.256V179.72z"/>
	<path d="M541.468,194.112c0.111,1.764,1.876,2.604,3.863,2.604c1.456,0,2.632-0.196,3.78-0.588l0.56,2.884
		c-1.399,0.588-3.107,0.868-4.955,0.868c-4.648,0-7.309-2.688-7.309-6.972c0-3.472,2.156-7.308,6.916-7.308
		c4.424,0,6.104,3.444,6.104,6.832c0,0.728-0.084,1.372-0.141,1.68H541.468z M546.479,191.2c0-1.036-0.448-2.772-2.408-2.772
		c-1.792,0-2.52,1.652-2.632,2.772H546.479z"/>
	<path d="M563.252,199.236c-0.757,0.364-2.185,0.644-3.809,0.644c-4.424,0-7.252-2.716-7.252-7c0-4.004,2.744-7.28,7.84-7.28
		c1.12,0,2.353,0.196,3.248,0.532l-0.672,3.164c-0.504-0.224-1.26-0.42-2.38-0.42c-2.24,0-3.696,1.596-3.668,3.836
		c0,2.492,1.68,3.836,3.752,3.836c1.008,0,1.792-0.168,2.436-0.448L563.252,199.236z"/>
	<path d="M570.812,182.212v3.696h3.052v3.136h-3.052V194c0,1.652,0.42,2.408,1.681,2.408c0.588,0,0.867-0.028,1.26-0.112l0.027,3.22
		c-0.531,0.196-1.567,0.364-2.743,0.364c-1.372,0-2.521-0.476-3.221-1.176c-0.784-0.812-1.176-2.128-1.176-4.06v-5.6h-1.82v-3.136
		h1.82v-2.548L570.812,182.212z"/>
	<path d="M576.327,190.416c0-2.016-0.028-3.332-0.112-4.508h3.641l0.168,2.52h0.111c0.7-2.016,2.353-2.856,3.696-2.856
		c0.392,0,0.588,0.028,0.896,0.084v4.004c-0.337-0.056-0.673-0.112-1.148-0.112c-1.568,0-2.632,0.84-2.912,2.156
		c-0.056,0.28-0.084,0.616-0.084,0.952v6.944h-4.256V190.416z"/>
	<path d="M600.268,192.6c0,5.012-3.557,7.308-7.225,7.308c-4.004,0-7.084-2.632-7.084-7.056c0-4.452,2.912-7.28,7.336-7.28
		C597.467,185.572,600.268,188.456,600.268,192.6z M590.355,192.74c0,2.352,0.979,4.116,2.8,4.116c1.68,0,2.716-1.652,2.716-4.144
		c0-2.016-0.784-4.088-2.716-4.088C591.139,188.624,590.355,190.724,590.355,192.74z"/>
	<path d="M602.898,190.276c0-1.708-0.056-3.136-0.112-4.368h3.696l0.196,1.904h0.084c0.56-0.896,1.932-2.212,4.228-2.212
		c2.8,0,4.9,1.876,4.9,5.908v8.092h-4.256v-7.588c0-1.764-0.616-2.968-2.156-2.968c-1.176,0-1.876,0.812-2.185,1.596
		c-0.111,0.28-0.14,0.672-0.14,1.064v7.896h-4.256V190.276z"/>
	<path d="M619.278,195.904c0.784,0.476,2.408,1.008,3.668,1.008c1.288,0,1.82-0.42,1.82-1.12c0-0.728-0.42-1.064-1.988-1.596
		c-2.855-0.952-3.947-2.492-3.92-4.116c0-2.576,2.185-4.508,5.572-4.508c1.596,0,2.996,0.392,3.836,0.812l-0.728,2.94
		c-0.616-0.336-1.82-0.784-2.969-0.784c-1.036,0-1.624,0.42-1.624,1.092c0,0.672,0.532,1.008,2.212,1.596
		c2.604,0.896,3.668,2.24,3.696,4.228c0,2.576-1.988,4.452-5.908,4.452c-1.792,0-3.388-0.42-4.424-0.98L619.278,195.904z"/>
	<path d="M629.499,202.932c0.896-2.492,1.651-5.404,2.044-7.952l4.34-0.28c-0.924,2.856-2.185,5.796-3.528,7.98L629.499,202.932z"/>
	<path d="M644.114,190.276c0-1.708-0.056-3.136-0.112-4.368h3.696l0.196,1.904h0.084c0.56-0.896,1.932-2.212,4.228-2.212
		c2.8,0,4.9,1.876,4.9,5.908v8.092h-4.256v-7.588c0-1.764-0.616-2.968-2.156-2.968c-1.176,0-1.876,0.812-2.185,1.596
		c-0.111,0.28-0.14,0.672-0.14,1.064v7.896h-4.256V190.276z"/>
	<path d="M663.799,194.112c0.111,1.764,1.876,2.604,3.863,2.604c1.456,0,2.632-0.196,3.78-0.588l0.56,2.884
		c-1.399,0.588-3.107,0.868-4.955,0.868c-4.648,0-7.309-2.688-7.309-6.972c0-3.472,2.156-7.308,6.916-7.308
		c4.424,0,6.104,3.444,6.104,6.832c0,0.728-0.084,1.372-0.141,1.68H663.799z M668.811,191.2c0-1.036-0.448-2.772-2.408-2.772
		c-1.792,0-2.52,1.652-2.632,2.772H668.811z"/>
	<path d="M688.215,195.204c0,1.792,0.056,3.248,0.111,4.396h-3.695l-0.196-1.932h-0.084c-0.532,0.84-1.82,2.24-4.284,2.24
		c-2.8,0-4.815-1.736-4.815-5.964v-8.036h4.256v7.364c0,1.988,0.644,3.192,2.155,3.192c1.177,0,1.877-0.812,2.129-1.484
		c0.111-0.252,0.168-0.56,0.168-0.924v-8.148h4.256V195.204z"/>
	<path d="M696.39,182.212v3.696h3.052v3.136h-3.052V194c0,1.652,0.42,2.408,1.681,2.408c0.588,0,0.867-0.028,1.26-0.112l0.027,3.22
		c-0.531,0.196-1.567,0.364-2.743,0.364c-1.372,0-2.521-0.476-3.221-1.176c-0.784-0.812-1.176-2.128-1.176-4.06v-5.6h-1.82v-3.136
		h1.82v-2.548L696.39,182.212z"/>
	<path d="M701.905,190.416c0-2.016-0.028-3.332-0.112-4.508h3.641l0.168,2.52h0.111c0.7-2.016,2.353-2.856,3.696-2.856
		c0.392,0,0.588,0.028,0.896,0.084v4.004c-0.337-0.056-0.673-0.112-1.148-0.112c-1.568,0-2.632,0.84-2.912,2.156
		c-0.056,0.28-0.084,0.616-0.084,0.952v6.944h-4.256V190.416z"/>
	<path d="M725.846,192.6c0,5.012-3.557,7.308-7.225,7.308c-4.004,0-7.084-2.632-7.084-7.056c0-4.452,2.912-7.28,7.336-7.28
		C723.045,185.572,725.846,188.456,725.846,192.6z M715.934,192.74c0,2.352,0.979,4.116,2.8,4.116c1.68,0,2.716-1.652,2.716-4.144
		c0-2.016-0.784-4.088-2.716-4.088C716.717,188.624,715.934,190.724,715.934,192.74z"/>
	<path d="M728.478,190.276c0-1.708-0.056-3.136-0.112-4.368h3.696l0.196,1.904h0.084c0.56-0.896,1.932-2.212,4.228-2.212
		c2.8,0,4.9,1.876,4.9,5.908v8.092h-4.256v-7.588c0-1.764-0.616-2.968-2.156-2.968c-1.176,0-1.876,0.812-2.185,1.596
		c-0.111,0.28-0.14,0.672-0.14,1.064v7.896h-4.256V190.276z"/>
	<path d="M744.857,195.904c0.784,0.476,2.408,1.008,3.668,1.008c1.288,0,1.82-0.42,1.82-1.12c0-0.728-0.42-1.064-1.988-1.596
		c-2.855-0.952-3.947-2.492-3.92-4.116c0-2.576,2.185-4.508,5.572-4.508c1.596,0,2.996,0.392,3.836,0.812l-0.728,2.94
		c-0.616-0.336-1.82-0.784-2.969-0.784c-1.036,0-1.624,0.42-1.624,1.092c0,0.672,0.532,1.008,2.212,1.596
		c2.604,0.896,3.668,2.24,3.696,4.228c0,2.576-1.988,4.452-5.908,4.452c-1.792,0-3.388-0.42-4.424-0.98L744.857,195.904z"/>
	<path d="M755.077,202.932c0.896-2.492,1.651-5.404,2.044-7.952l4.34-0.28c-0.924,2.856-2.185,5.796-3.528,7.98L755.077,202.932z"/>
	<path d="M769.693,190.276c0-1.708-0.056-3.136-0.112-4.368h3.696l0.196,1.904h0.084c0.56-0.896,1.932-2.212,4.228-2.212
		c2.8,0,4.9,1.876,4.9,5.908v8.092h-4.256v-7.588c0-1.764-0.616-2.968-2.156-2.968c-1.176,0-1.876,0.812-2.185,1.596
		c-0.111,0.28-0.14,0.672-0.14,1.064v7.896h-4.256V190.276z"/>
	<path d="M799.009,195.204c0,1.792,0.056,3.248,0.111,4.396h-3.695l-0.196-1.932h-0.084c-0.532,0.84-1.82,2.24-4.284,2.24
		c-2.8,0-4.815-1.736-4.815-5.964v-8.036h4.256v7.364c0,1.988,0.644,3.192,2.156,3.192c1.176,0,1.876-0.812,2.128-1.484
		c0.111-0.252,0.168-0.56,0.168-0.924v-8.148h4.256V195.204z"/>
	<path d="M812.701,199.236c-0.757,0.364-2.185,0.644-3.809,0.644c-4.424,0-7.252-2.716-7.252-7c0-4.004,2.744-7.28,7.84-7.28
		c1.12,0,2.353,0.196,3.248,0.532l-0.672,3.164c-0.504-0.224-1.26-0.42-2.38-0.42c-2.24,0-3.696,1.596-3.668,3.836
		c0,2.492,1.68,3.836,3.752,3.836c1.008,0,1.792-0.168,2.436-0.448L812.701,199.236z"/>
	<path d="M815.053,179.72h4.256v19.88h-4.256V179.72z"/>
	<path d="M826.028,194.112c0.111,1.764,1.876,2.604,3.863,2.604c1.456,0,2.632-0.196,3.78-0.588l0.56,2.884
		c-1.399,0.588-3.107,0.868-4.955,0.868c-4.648,0-7.309-2.688-7.309-6.972c0-3.472,2.156-7.308,6.916-7.308
		c4.424,0,6.104,3.444,6.104,6.832c0,0.728-0.084,1.372-0.141,1.68H826.028z M831.04,191.2c0-1.036-0.448-2.772-2.408-2.772
		c-1.792,0-2.52,1.652-2.632,2.772H831.04z"/>
	<path d="M841.932,182.1c0,1.176-0.867,2.128-2.296,2.128c-1.344,0-2.212-0.952-2.212-2.128c0-1.204,0.896-2.128,2.269-2.128
		S841.904,180.896,841.932,182.1z M837.536,199.6v-13.692h4.256V199.6H837.536z"/>
</g>
<g>
	<path fill="#B09000" d="M525.75,288.344c0,4.115-2.874,5.909-5.541,5.909c-2.989,0-5.335-2.208-5.335-5.726
		c0-3.702,2.46-5.887,5.519-5.887C523.589,282.641,525.75,284.963,525.75,288.344z M516.943,288.458c0,2.438,1.38,4.277,3.357,4.277
		c1.932,0,3.38-1.817,3.38-4.323c0-1.885-0.942-4.254-3.334-4.254C517.979,284.158,516.943,286.365,516.943,288.458z"/>
	<path fill="#B09000" d="M537.618,290.941c0,1.173,0.023,2.185,0.093,3.059h-1.794l-0.115-1.816h-0.046
		c-0.506,0.896-1.701,2.069-3.679,2.069c-1.748,0-3.841-0.989-3.841-4.875v-6.507h2.023v6.139c0,2.115,0.667,3.564,2.483,3.564
		c1.357,0,2.3-0.943,2.668-1.862c0.115-0.276,0.184-0.644,0.184-1.035v-6.806h2.023V290.941z"/>
	<path fill="#B09000" d="M543.416,280.203v2.668h2.897v1.54h-2.897v6.001c0,1.381,0.391,2.162,1.518,2.162
		c0.552,0,0.874-0.046,1.173-0.138l0.092,1.54c-0.391,0.139-1.012,0.276-1.794,0.276c-0.942,0-1.701-0.321-2.185-0.851
		c-0.552-0.621-0.781-1.609-0.781-2.92v-6.071h-1.725v-1.54h1.725v-2.07L543.416,280.203z"/>
	<path fill="#B09000" d="M549.58,288.803c0.046,2.736,1.771,3.863,3.816,3.863c1.449,0,2.346-0.252,3.082-0.574l0.368,1.448
		c-0.713,0.321-1.955,0.713-3.726,0.713c-3.427,0-5.473-2.276-5.473-5.634s1.978-5.979,5.22-5.979c3.656,0,4.599,3.174,4.599,5.22
		c0,0.414-0.022,0.713-0.068,0.942H549.58z M555.513,287.354c0.022-1.265-0.529-3.265-2.806-3.265c-2.069,0-2.943,1.861-3.104,3.265
		H555.513z"/>
	<path fill="#B09000" d="M559.977,286.343c0-1.312-0.023-2.438-0.092-3.472h1.771l0.092,2.207h0.069
		c0.506-1.494,1.747-2.438,3.104-2.438c0.207,0,0.368,0.023,0.553,0.046v1.909c-0.207-0.047-0.414-0.047-0.69-0.047
		c-1.426,0-2.438,1.059-2.713,2.576c-0.046,0.275-0.069,0.62-0.069,0.942V294h-2.023V286.343z"/>
	<path fill="#B09000" d="M580.307,293.609c-0.529,0.252-1.702,0.644-3.196,0.644c-3.357,0-5.542-2.276-5.542-5.68
		c0-3.427,2.346-5.933,5.979-5.933c1.195,0,2.254,0.299,2.806,0.598l-0.46,1.541c-0.483-0.254-1.242-0.529-2.346-0.529
		c-2.553,0-3.933,1.908-3.933,4.208c0,2.575,1.656,4.162,3.863,4.162c1.15,0,1.909-0.276,2.483-0.528L580.307,293.609z"/>
	<path fill="#B09000" d="M592.61,288.344c0,4.115-2.874,5.909-5.541,5.909c-2.989,0-5.335-2.208-5.335-5.726
		c0-3.702,2.46-5.887,5.519-5.887C590.449,282.641,592.61,284.963,592.61,288.344z M583.804,288.458c0,2.438,1.38,4.277,3.357,4.277
		c1.932,0,3.38-1.817,3.38-4.323c0-1.885-0.942-4.254-3.334-4.254C584.839,284.158,583.804,286.365,583.804,288.458z"/>
	<path fill="#B09000" d="M595.166,286.343c0-1.312-0.023-2.438-0.092-3.472h1.771l0.092,2.207h0.069
		c0.506-1.494,1.747-2.438,3.104-2.438c0.207,0,0.368,0.023,0.553,0.046v1.909c-0.207-0.047-0.414-0.047-0.69-0.047
		c-1.426,0-2.438,1.059-2.713,2.576c-0.046,0.275-0.069,0.62-0.069,0.942V294h-2.023V286.343z"/>
	<path fill="#B09000" d="M603.584,288.803c0.046,2.736,1.771,3.863,3.816,3.863c1.449,0,2.346-0.252,3.082-0.574l0.368,1.448
		c-0.713,0.321-1.955,0.713-3.726,0.713c-3.427,0-5.473-2.276-5.473-5.634s1.978-5.979,5.22-5.979c3.656,0,4.599,3.174,4.599,5.22
		c0,0.414-0.022,0.713-0.068,0.942H603.584z M609.517,287.354c0.022-1.265-0.529-3.265-2.806-3.265
		c-2.069,0-2.943,1.861-3.104,3.265H609.517z"/>
	<path fill="#B09000" d="M618.304,289.171c-0.069-2.3,1.149-3.472,2.736-3.472c0.966,0,1.701,0.299,3.266,1.034
		c1.149,0.552,2,0.966,2.851,0.966c0.828,0,1.219-0.666,1.242-1.932h1.356c0.115,2.553-1.195,3.473-2.621,3.473
		c-0.92,0-1.748-0.276-3.335-1.012c-1.08-0.529-1.931-1.012-2.759-1.012s-1.334,0.574-1.356,1.954H618.304z"/>
	<path fill="#B09000" d="M637.969,292.574c0.437,0.046,0.942,0,1.632-0.068c1.173-0.162,2.276-0.621,3.128-1.449
		c0.988-0.896,1.701-2.207,1.978-3.955h-0.069c-0.828,1.012-2.023,1.586-3.541,1.586c-2.668,0-4.393-2.023-4.393-4.575
		c0-2.829,2.047-5.312,5.105-5.312s4.943,2.46,4.943,6.323c0,3.265-1.104,5.564-2.575,6.99c-1.149,1.127-2.736,1.817-4.346,2.001
		c-0.736,0.115-1.38,0.138-1.862,0.115V292.574z M638.704,283.997c0,1.862,1.127,3.173,2.874,3.173c1.357,0,2.415-0.666,2.943-1.563
		c0.115-0.207,0.185-0.414,0.185-0.76c0-2.553-0.943-4.507-3.082-4.507C639.923,280.341,638.704,281.858,638.704,283.997z"/>
	<path fill="#B09000" d="M656.113,287.975h0.047c0.275-0.391,0.644-0.873,0.966-1.264l3.288-3.84h2.414l-4.277,4.575l4.898,6.554
		h-2.483l-3.817-5.335l-1.035,1.149V294h-2v-16.326h2V287.975z"/>
	<path fill="#B09000" d="M665.291,285.883c0-1.173-0.046-2.093-0.092-3.012h1.771l0.092,1.816h0.069
		c0.62-1.059,1.655-2.047,3.518-2.047c1.495,0,2.645,0.92,3.128,2.23h0.046c0.345-0.645,0.805-1.104,1.265-1.449
		c0.667-0.506,1.38-0.781,2.438-0.781c1.494,0,3.679,0.966,3.679,4.828V294h-1.978v-6.277c0-2.162-0.805-3.427-2.414-3.427
		c-1.173,0-2.047,0.851-2.415,1.817c-0.092,0.299-0.16,0.643-0.16,1.012V294h-1.978v-6.668c0-1.771-0.782-3.036-2.323-3.036
		c-1.241,0-2.185,1.013-2.506,2.024c-0.115,0.275-0.161,0.643-0.161,0.988V294h-1.978V285.883z"/>
	<path d="M515.708,311.276c0-1.708-0.056-3.136-0.112-4.368h3.696l0.196,1.904h0.084c0.56-0.896,1.932-2.213,4.228-2.213
		c2.8,0,4.9,1.877,4.9,5.908v8.092h-4.256v-7.588c0-1.764-0.616-2.968-2.156-2.968c-1.176,0-1.876,0.812-2.185,1.597
		c-0.111,0.279-0.14,0.672-0.14,1.063v7.896h-4.256V311.276z"/>
	<path d="M535.393,315.112c0.111,1.764,1.876,2.604,3.863,2.604c1.456,0,2.632-0.197,3.78-0.589l0.56,2.884
		c-1.399,0.588-3.107,0.868-4.955,0.868c-4.648,0-7.309-2.688-7.309-6.972c0-3.473,2.156-7.309,6.916-7.309
		c4.424,0,6.104,3.444,6.104,6.832c0,0.729-0.084,1.373-0.141,1.681H535.393z M540.404,312.2c0-1.036-0.448-2.772-2.408-2.772
		c-1.792,0-2.52,1.652-2.632,2.772H540.404z"/>
	<path d="M559.809,316.204c0,1.792,0.056,3.248,0.111,4.396h-3.695l-0.196-1.932h-0.084c-0.532,0.84-1.82,2.24-4.284,2.24
		c-2.8,0-4.815-1.736-4.815-5.964v-8.036h4.256v7.363c0,1.988,0.644,3.192,2.155,3.192c1.177,0,1.877-0.812,2.129-1.483
		c0.111-0.252,0.168-0.561,0.168-0.924v-8.148h4.256V316.204z"/>
	<path d="M567.983,303.213v3.695h3.052v3.136h-3.052V315c0,1.652,0.42,2.408,1.681,2.408c0.588,0,0.867-0.028,1.26-0.112l0.027,3.22
		c-0.531,0.196-1.567,0.364-2.743,0.364c-1.372,0-2.521-0.476-3.221-1.176c-0.784-0.812-1.176-2.128-1.176-4.06v-5.601h-1.82v-3.136
		h1.82v-2.548L567.983,303.213z"/>
	<path d="M573.499,311.416c0-2.016-0.028-3.332-0.112-4.508h3.641l0.168,2.52h0.111c0.7-2.016,2.353-2.855,3.696-2.855
		c0.392,0,0.588,0.027,0.896,0.084v4.004c-0.337-0.057-0.673-0.111-1.148-0.111c-1.568,0-2.632,0.84-2.912,2.155
		c-0.056,0.28-0.084,0.616-0.084,0.952v6.943h-4.256V311.416z"/>
	<path d="M597.439,313.6c0,5.013-3.557,7.309-7.225,7.309c-4.004,0-7.084-2.633-7.084-7.057c0-4.451,2.912-7.279,7.336-7.279
		C594.639,306.572,597.439,309.456,597.439,313.6z M587.527,313.74c0,2.352,0.979,4.115,2.8,4.115c1.68,0,2.716-1.651,2.716-4.144
		c0-2.016-0.784-4.088-2.716-4.088C588.311,309.624,587.527,311.725,587.527,313.74z"/>
	<path d="M600.071,311.276c0-1.708-0.056-3.136-0.112-4.368h3.696l0.196,1.904h0.084c0.56-0.896,1.932-2.213,4.228-2.213
		c2.8,0,4.9,1.877,4.9,5.908v8.092h-4.256v-7.588c0-1.764-0.616-2.968-2.156-2.968c-1.176,0-1.876,0.812-2.185,1.597
		c-0.111,0.279-0.14,0.672-0.14,1.063v7.896h-4.256V311.276z"/>
	<path d="M622.947,311.836v2.828h-7.336v-2.828H622.947z"/>
	<path d="M625.495,311.5c0-1.792-0.056-3.304-0.112-4.592h3.696l0.196,1.904h0.056c1.008-1.428,2.576-2.213,4.564-2.213
		c2.995,0,5.684,2.604,5.684,6.973c0,4.984-3.164,7.336-6.216,7.336c-1.652,0-2.94-0.672-3.557-1.568h-0.056v6.805h-4.256V311.5z
		 M629.751,314.721c0,0.336,0.028,0.615,0.084,0.896c0.28,1.147,1.26,2.017,2.492,2.017c1.848,0,2.939-1.541,2.939-3.865
		c0-2.184-0.979-3.836-2.884-3.836c-1.204,0-2.268,0.896-2.548,2.156c-0.056,0.225-0.084,0.504-0.084,0.756V314.721z"/>
	<path d="M642.238,311.416c0-2.016-0.028-3.332-0.112-4.508h3.641l0.168,2.52h0.111c0.7-2.016,2.353-2.855,3.696-2.855
		c0.392,0,0.588,0.027,0.896,0.084v4.004c-0.337-0.057-0.673-0.111-1.148-0.111c-1.568,0-2.632,0.84-2.912,2.155
		c-0.056,0.28-0.084,0.616-0.084,0.952v6.943h-4.256V311.416z"/>
	<path d="M666.178,313.6c0,5.013-3.556,7.309-7.224,7.309c-4.004,0-7.084-2.633-7.084-7.057c0-4.451,2.912-7.279,7.336-7.279
		C663.378,306.572,666.178,309.456,666.178,313.6z M656.267,313.74c0,2.352,0.979,4.115,2.8,4.115c1.68,0,2.716-1.651,2.716-4.144
		c0-2.016-0.784-4.088-2.716-4.088C657.05,309.624,656.267,311.725,656.267,313.74z"/>
	<path d="M673.57,303.213v3.695h3.052v3.136h-3.052V315c0,1.652,0.42,2.408,1.681,2.408c0.588,0,0.867-0.028,1.26-0.112l0.027,3.22
		c-0.531,0.196-1.567,0.364-2.743,0.364c-1.372,0-2.521-0.476-3.221-1.176c-0.783-0.812-1.176-2.128-1.176-4.06v-5.601h-1.82v-3.136
		h1.82v-2.548L673.57,303.213z"/>
	<path d="M692.471,313.6c0,5.013-3.557,7.309-7.225,7.309c-4.004,0-7.084-2.633-7.084-7.057c0-4.451,2.912-7.279,7.336-7.279
		C689.67,306.572,692.471,309.456,692.471,313.6z M682.559,313.74c0,2.352,0.979,4.115,2.8,4.115c1.68,0,2.716-1.651,2.716-4.144
		c0-2.016-0.784-4.088-2.716-4.088C683.342,309.624,682.559,311.725,682.559,313.74z"/>
	<path d="M695.103,311.276c0-1.708-0.056-3.136-0.112-4.368h3.696l0.196,1.904h0.084c0.56-0.896,1.932-2.213,4.228-2.213
		c2.8,0,4.9,1.877,4.9,5.908v8.092h-4.256v-7.588c0-1.764-0.616-2.968-2.156-2.968c-1.176,0-1.876,0.812-2.185,1.597
		c-0.111,0.279-0.14,0.672-0.14,1.063v7.896h-4.256V311.276z"/>
	<path d="M717.334,301.729h11.508v3.5h-7.252v4.312h6.776v3.472h-6.776v7.588h-4.256V301.729z"/>
	<path d="M734.471,315.112c0.111,1.764,1.876,2.604,3.863,2.604c1.456,0,2.632-0.197,3.78-0.589l0.56,2.884
		c-1.399,0.588-3.107,0.868-4.955,0.868c-4.648,0-7.309-2.688-7.309-6.972c0-3.473,2.156-7.309,6.916-7.309
		c4.424,0,6.104,3.444,6.104,6.832c0,0.729-0.084,1.373-0.141,1.681H734.471z M739.482,312.2c0-1.036-0.448-2.772-2.408-2.772
		c-1.792,0-2.52,1.652-2.632,2.772H739.482z"/>
	<path d="M745.979,311.416c0-2.016-0.028-3.332-0.112-4.508h3.641l0.168,2.52h0.111c0.7-2.016,2.353-2.855,3.696-2.855
		c0.392,0,0.588,0.027,0.896,0.084v4.004c-0.337-0.057-0.673-0.111-1.148-0.111c-1.568,0-2.632,0.84-2.912,2.155
		c-0.056,0.28-0.084,0.616-0.084,0.952v6.943h-4.256V311.416z"/>
	<path d="M756.618,311.276c0-1.708-0.056-3.136-0.112-4.368h3.612l0.168,1.848h0.084c0.588-0.896,1.82-2.184,4.144-2.184
		c1.792,0,3.164,0.924,3.752,2.352h0.057c0.532-0.728,1.12-1.287,1.792-1.68c0.756-0.42,1.596-0.672,2.604-0.672
		c2.632,0,4.62,1.848,4.62,5.964v8.063h-4.144v-7.447c0-1.988-0.645-3.137-2.017-3.137c-1.008,0-1.68,0.672-1.987,1.484
		c-0.084,0.309-0.141,0.729-0.141,1.092v8.008h-4.144V312.9c0-1.708-0.616-2.885-1.988-2.885c-1.092,0-1.736,0.84-1.988,1.513
		c-0.14,0.336-0.168,0.728-0.168,1.092v7.979h-4.144V311.276z"/>
	<path d="M785.093,303.1c0,1.177-0.867,2.129-2.296,2.129c-1.344,0-2.212-0.952-2.212-2.129c0-1.203,0.896-2.127,2.269-2.127
		S785.065,301.896,785.093,303.1z M780.697,320.6v-13.691h4.256V320.6H780.697z"/>
	<path d="M794.025,300.721h4.256V320.6h-4.256V300.721z"/>
	<path d="M806.12,303.1c0,1.177-0.867,2.129-2.296,2.129c-1.344,0-2.212-0.952-2.212-2.129c0-1.203,0.896-2.127,2.269-2.127
		S806.093,301.896,806.12,303.1z M801.725,320.6v-13.691h4.256V320.6H801.725z"/>
	<path d="M818.412,318.864h-0.056c-0.868,1.315-2.24,2.044-4.088,2.044c-2.968,0-5.656-2.633-5.656-6.973
		c0-4.928,3.108-7.363,6.048-7.363c1.765,0,3.053,0.645,3.836,1.932l0.057,0.028l0.111-1.624h4.088
		c-0.027,1.344-0.084,2.688-0.084,4.115v15.121h-4.256V318.864z M818.412,312.648c0-0.252-0.027-0.477-0.084-0.7
		c-0.224-1.093-1.147-2.044-2.464-2.044c-1.932,0-2.939,1.652-2.939,3.863c0,2.269,1.12,3.781,2.912,3.781
		c1.203,0,2.184-0.813,2.464-1.933c0.084-0.28,0.111-0.644,0.111-0.925V312.648z"/>
	<path d="M838.964,316.204c0,1.792,0.056,3.248,0.111,4.396h-3.695l-0.196-1.932H835.1c-0.532,0.84-1.82,2.24-4.284,2.24
		c-2.8,0-4.815-1.736-4.815-5.964v-8.036h4.256v7.363c0,1.988,0.644,3.192,2.156,3.192c1.176,0,1.876-0.812,2.128-1.483
		c0.111-0.252,0.168-0.561,0.168-0.924v-8.148h4.256V316.204z"/>
	<path d="M846.775,303.1c0,1.177-0.867,2.129-2.296,2.129c-1.344,0-2.212-0.952-2.212-2.129c0-1.203,0.896-2.127,2.269-2.127
		S846.748,301.896,846.775,303.1z M842.38,320.6v-13.691h4.256V320.6H842.38z"/>
	<path d="M863.323,300.721v15.791c0,1.541,0.057,3.164,0.112,4.088h-3.78l-0.168-1.987h-0.084c-0.84,1.512-2.52,2.296-4.283,2.296
		c-3.248,0-5.853-2.771-5.853-7.028c-0.027-4.62,2.856-7.308,6.132-7.308c1.708,0,2.996,0.615,3.612,1.54h0.056v-7.392H863.323z
		 M859.067,312.704c0-0.224,0-0.532-0.056-0.784c-0.252-1.119-1.176-2.072-2.492-2.072c-1.96,0-2.939,1.736-2.939,3.893
		c0,2.324,1.147,3.779,2.912,3.779c1.231,0,2.239-0.84,2.491-2.043c0.057-0.309,0.084-0.645,0.084-0.98V312.704z"/>
	<path d="M516.212,354.2v-10.556h-1.82v-3.137h1.82v-0.531c0-1.652,0.504-3.473,1.708-4.592c1.092-1.008,2.548-1.373,3.808-1.373
		c0.925,0,1.652,0.141,2.24,0.281l-0.168,3.275c-0.364-0.112-0.812-0.196-1.372-0.196c-1.399,0-1.987,1.093-1.987,2.437v0.699h2.743
		v3.137h-2.716V354.2H516.212z"/>
	<path d="M528.252,348.713c0.111,1.764,1.876,2.604,3.863,2.604c1.456,0,2.632-0.196,3.78-0.588l0.56,2.884
		c-1.399,0.588-3.107,0.868-4.955,0.868c-4.648,0-7.309-2.688-7.309-6.973c0-3.472,2.156-7.308,6.916-7.308
		c4.424,0,6.104,3.444,6.104,6.832c0,0.728-0.084,1.372-0.141,1.681H528.252z M533.264,345.801c0-1.037-0.448-2.772-2.408-2.772
		c-1.792,0-2.52,1.651-2.632,2.772H533.264z"/>
	<path d="M542.532,340.508l1.119,5.629c0.252,1.399,0.532,2.912,0.757,4.479h0.084c0.252-1.567,0.672-3.108,0.979-4.452l1.456-5.656
		h3.36l1.372,5.461c0.392,1.567,0.756,3.08,1.008,4.647h0.056c0.196-1.54,0.477-3.108,0.813-4.676l1.147-5.433h4.172l-4.2,13.692
		h-3.976l-1.288-4.788c-0.364-1.344-0.616-2.576-0.896-4.283h-0.057c-0.252,1.707-0.531,2.995-0.868,4.256L546.2,354.2h-4.005
		l-4.004-13.692H542.532z"/>
	<path d="M575.543,341.096c0,3.809-2.408,5.824-5.04,5.824c-2.771,0-4.956-2.072-4.956-5.516c0-3.248,1.988-5.712,5.124-5.712
		C573.779,335.692,575.543,337.988,575.543,341.096z M568.711,341.32c-0.028,1.904,0.645,3.275,1.876,3.275
		c1.204,0,1.792-1.231,1.792-3.303c0-1.849-0.504-3.277-1.848-3.277C569.271,338.016,568.711,339.473,568.711,341.32z
		 M570.699,354.508l10.472-18.787h2.268l-10.443,18.787H570.699z M588.646,348.656c0,3.779-2.407,5.796-5.039,5.796
		c-2.744,0-4.929-2.071-4.929-5.487c0-3.248,1.988-5.713,5.097-5.713C586.883,343.252,588.646,345.549,588.646,348.656z
		 M581.843,348.852c-0.028,1.904,0.645,3.277,1.849,3.277c1.203,0,1.792-1.232,1.792-3.277c0-1.848-0.505-3.275-1.82-3.275
		C582.403,345.576,581.843,347.032,581.843,348.852z"/>
	<path d="M600.071,348.713c0.111,1.764,1.876,2.604,3.863,2.604c1.456,0,2.632-0.196,3.78-0.588l0.56,2.884
		c-1.399,0.588-3.107,0.868-4.955,0.868c-4.648,0-7.309-2.688-7.309-6.973c0-3.472,2.156-7.308,6.916-7.308
		c4.424,0,6.104,3.444,6.104,6.832c0,0.728-0.084,1.372-0.141,1.681H600.071z M605.083,345.801c0-1.037-0.448-2.772-2.408-2.772
		c-1.792,0-2.52,1.651-2.632,2.772H605.083z"/>
	<path d="M611.579,334.32h4.256v19.88h-4.256V334.32z"/>
	<path d="M622.556,348.713c0.111,1.764,1.876,2.604,3.863,2.604c1.456,0,2.632-0.196,3.78-0.588l0.56,2.884
		c-1.399,0.588-3.107,0.868-4.955,0.868c-4.648,0-7.309-2.688-7.309-6.973c0-3.472,2.156-7.308,6.916-7.308
		c4.424,0,6.104,3.444,6.104,6.832c0,0.728-0.084,1.372-0.141,1.681H622.556z M627.567,345.801c0-1.037-0.448-2.772-2.408-2.772
		c-1.792,0-2.52,1.651-2.632,2.772H627.567z"/>
	<path d="M644.339,353.836c-0.757,0.364-2.185,0.645-3.809,0.645c-4.424,0-7.252-2.717-7.252-7c0-4.004,2.744-7.28,7.84-7.28
		c1.12,0,2.353,0.196,3.248,0.532l-0.672,3.164c-0.504-0.225-1.26-0.42-2.38-0.42c-2.24,0-3.696,1.596-3.668,3.836
		c0,2.492,1.68,3.836,3.752,3.836c1.008,0,1.792-0.168,2.436-0.448L644.339,353.836z"/>
	<path d="M651.898,336.813v3.695h3.052v3.137h-3.052v4.955c0,1.652,0.42,2.408,1.681,2.408c0.588,0,0.867-0.027,1.26-0.111
		l0.027,3.22c-0.531,0.196-1.567,0.364-2.743,0.364c-1.372,0-2.521-0.477-3.221-1.176c-0.783-0.813-1.176-2.129-1.176-4.061v-5.6
		h-1.82v-3.137h1.82v-2.547L651.898,336.813z"/>
	<path d="M657.414,345.016c0-2.016-0.028-3.332-0.112-4.508h3.641l0.168,2.521h0.111c0.7-2.017,2.353-2.856,3.696-2.856
		c0.392,0,0.588,0.028,0.896,0.084v4.004c-0.337-0.056-0.673-0.111-1.148-0.111c-1.568,0-2.632,0.84-2.912,2.156
		c-0.056,0.279-0.084,0.615-0.084,0.951v6.944h-4.256V345.016z"/>
	<path d="M681.354,347.2c0,5.013-3.556,7.308-7.224,7.308c-4.004,0-7.084-2.632-7.084-7.056c0-4.452,2.912-7.28,7.336-7.28
		C678.554,340.172,681.354,343.057,681.354,347.2z M671.442,347.34c0,2.353,0.979,4.116,2.8,4.116c1.68,0,2.716-1.651,2.716-4.144
		c0-2.016-0.784-4.088-2.716-4.088C672.226,343.225,671.442,345.324,671.442,347.34z"/>
	<path d="M683.985,344.877c0-1.709-0.056-3.137-0.112-4.369h3.696l0.196,1.904h0.084c0.56-0.896,1.932-2.212,4.228-2.212
		c2.8,0,4.9,1.876,4.9,5.908v8.092h-4.256v-7.588c0-1.765-0.616-2.968-2.156-2.968c-1.176,0-1.876,0.812-2.185,1.596
		c-0.111,0.279-0.14,0.672-0.14,1.064v7.896h-4.256V344.877z"/>
	<path d="M706.218,335.328h11.508v3.5h-7.252v4.313h6.776v3.472h-6.776v7.588h-4.256V335.328z"/>
	<path d="M723.354,348.713c0.111,1.764,1.876,2.604,3.863,2.604c1.456,0,2.632-0.196,3.78-0.588l0.56,2.884
		c-1.399,0.588-3.107,0.868-4.955,0.868c-4.648,0-7.309-2.688-7.309-6.973c0-3.472,2.156-7.308,6.916-7.308
		c4.424,0,6.104,3.444,6.104,6.832c0,0.728-0.084,1.372-0.141,1.681H723.354z M728.366,345.801c0-1.037-0.448-2.772-2.408-2.772
		c-1.792,0-2.52,1.651-2.632,2.772H728.366z"/>
	<path d="M734.861,345.016c0-2.016-0.028-3.332-0.112-4.508h3.641l0.168,2.521h0.111c0.7-2.017,2.353-2.856,3.696-2.856
		c0.392,0,0.588,0.028,0.896,0.084v4.004c-0.337-0.056-0.673-0.111-1.148-0.111c-1.568,0-2.632,0.84-2.912,2.156
		c-0.056,0.279-0.084,0.615-0.084,0.951v6.944h-4.256V345.016z"/>
	<path d="M745.501,344.877c0-1.709-0.056-3.137-0.112-4.369h3.612l0.168,1.849h0.084c0.588-0.896,1.82-2.185,4.144-2.185
		c1.792,0,3.164,0.924,3.752,2.353h0.057c0.532-0.728,1.12-1.288,1.792-1.681c0.756-0.42,1.596-0.672,2.604-0.672
		c2.632,0,4.62,1.848,4.62,5.965v8.063h-4.144v-7.448c0-1.988-0.645-3.136-2.017-3.136c-1.008,0-1.68,0.672-1.987,1.483
		c-0.084,0.309-0.141,0.729-0.141,1.093v8.008h-4.144v-7.7c0-1.708-0.616-2.884-1.988-2.884c-1.092,0-1.736,0.84-1.988,1.513
		c-0.14,0.336-0.168,0.728-0.168,1.092v7.979h-4.144V344.877z"/>
	<path d="M773.977,336.7c0,1.177-0.867,2.128-2.296,2.128c-1.344,0-2.212-0.951-2.212-2.128c0-1.204,0.896-2.128,2.269-2.128
		S773.949,335.496,773.977,336.7z M769.581,354.2v-13.692h4.256V354.2H769.581z"/>
	<path d="M795.872,352.213c0,2.631-0.532,4.787-2.1,6.159c-1.484,1.288-3.528,1.681-5.544,1.681c-1.82,0-3.696-0.365-4.929-1.037
		l0.841-3.248c0.867,0.504,2.352,1.037,3.976,1.037c2.016,0,3.556-1.064,3.556-3.612v-0.868h-0.056
		c-0.813,1.12-2.128,1.764-3.696,1.764c-3.388,0-5.796-2.744-5.796-6.664c0-4.424,2.828-7.224,6.216-7.224
		c1.876,0,3.053,0.812,3.752,1.96h0.057l0.14-1.652h3.696c-0.057,0.896-0.112,2.045-0.112,4.088V352.213z M791.616,346.08
		c0-0.252-0.028-0.531-0.084-0.783c-0.308-1.121-1.12-1.877-2.296-1.877c-1.568,0-2.8,1.4-2.8,3.893c0,2.044,1.008,3.64,2.771,3.64
		c1.12,0,1.988-0.728,2.269-1.708c0.111-0.336,0.14-0.783,0.14-1.148V346.08z"/>
	<path d="M810.684,350.896c0,1.287,0.057,2.548,0.225,3.304h-3.836l-0.252-1.372h-0.084c-0.896,1.092-2.296,1.68-3.92,1.68
		c-2.772,0-4.425-2.016-4.425-4.199c0-3.557,3.192-5.236,8.036-5.236v-0.168c0-0.756-0.392-1.792-2.491-1.792
		c-1.4,0-2.885,0.476-3.78,1.036l-0.784-2.744c0.952-0.532,2.828-1.232,5.32-1.232c4.563,0,5.991,2.688,5.991,5.937V350.896z
		 M806.568,347.732c-2.24,0-3.977,0.531-3.977,2.156c0,1.092,0.729,1.623,1.681,1.623c1.035,0,1.932-0.699,2.212-1.567
		c0.056-0.224,0.084-0.476,0.084-0.728V347.732z"/>
	<path d="M814.044,350.504c0.784,0.477,2.408,1.008,3.668,1.008c1.288,0,1.82-0.42,1.82-1.119c0-0.729-0.42-1.064-1.988-1.596
		c-2.855-0.953-3.947-2.492-3.92-4.117c0-2.575,2.185-4.508,5.572-4.508c1.596,0,2.996,0.393,3.836,0.813l-0.728,2.939
		c-0.616-0.336-1.82-0.783-2.969-0.783c-1.036,0-1.624,0.42-1.624,1.092s0.532,1.008,2.212,1.596
		c2.604,0.896,3.668,2.24,3.696,4.229c0,2.576-1.988,4.451-5.908,4.451c-1.792,0-3.388-0.42-4.424-0.979L814.044,350.504z"/>
</g>
<g>
	<path fill="#B09000" d="M517.933,419.743c0,0.69-0.483,1.241-1.288,1.241c-0.736,0-1.219-0.551-1.219-1.241
		s0.506-1.265,1.265-1.265C517.426,418.479,517.933,419.03,517.933,419.743z M515.679,434v-11.129h2.023V434H515.679z"/>
	<path fill="#B09000" d="M521.061,425.883c0-1.173-0.023-2.093-0.092-3.012h1.793l0.115,1.839h0.046
		c0.552-1.034,1.84-2.069,3.68-2.069c1.54,0,3.932,0.92,3.932,4.736V434h-2.023v-6.416c0-1.793-0.667-3.288-2.575-3.288
		c-1.311,0-2.346,0.942-2.714,2.069c-0.092,0.254-0.138,0.598-0.138,0.943V434h-2.023V425.883z"/>
	<path fill="#B09000" d="M533.825,425.883c0-1.173-0.023-2.093-0.092-3.012h1.793l0.115,1.839h0.046
		c0.552-1.034,1.84-2.069,3.68-2.069c1.54,0,3.932,0.92,3.932,4.736V434h-2.023v-6.416c0-1.793-0.667-3.288-2.575-3.288
		c-1.311,0-2.346,0.942-2.714,2.069c-0.092,0.254-0.138,0.598-0.138,0.943V434h-2.023V425.883z"/>
	<path fill="#B09000" d="M547.717,428.803c0.046,2.736,1.771,3.863,3.816,3.863c1.449,0,2.346-0.252,3.082-0.574l0.368,1.448
		c-0.713,0.321-1.955,0.713-3.726,0.713c-3.427,0-5.473-2.276-5.473-5.634s1.978-5.979,5.22-5.979c3.656,0,4.599,3.174,4.599,5.22
		c0,0.414-0.022,0.713-0.068,0.942H547.717z M553.649,427.354c0.022-1.265-0.529-3.265-2.806-3.265
		c-2.069,0-2.943,1.861-3.104,3.265H553.649z"/>
	<path fill="#B09000" d="M558.113,426.343c0-1.312-0.023-2.438-0.092-3.472h1.771l0.092,2.207h0.069
		c0.506-1.494,1.747-2.438,3.104-2.438c0.207,0,0.368,0.023,0.553,0.046v1.909c-0.207-0.047-0.414-0.047-0.69-0.047
		c-1.426,0-2.438,1.059-2.713,2.576c-0.046,0.275-0.069,0.62-0.069,0.942V434h-2.023V426.343z"/>
	<path fill="#B09000" d="M578.443,433.609c-0.529,0.252-1.702,0.644-3.196,0.644c-3.357,0-5.542-2.276-5.542-5.68
		c0-3.427,2.346-5.933,5.979-5.933c1.195,0,2.254,0.299,2.806,0.598l-0.46,1.541c-0.483-0.254-1.242-0.529-2.346-0.529
		c-2.553,0-3.933,1.908-3.933,4.208c0,2.575,1.656,4.162,3.863,4.162c1.15,0,1.909-0.276,2.483-0.528L578.443,433.609z"/>
	<path fill="#B09000" d="M590.747,428.344c0,4.115-2.874,5.909-5.541,5.909c-2.989,0-5.335-2.208-5.335-5.726
		c0-3.702,2.46-5.887,5.519-5.887C588.586,422.641,590.747,424.963,590.747,428.344z M581.94,428.458
		c0,2.438,1.38,4.277,3.357,4.277c1.932,0,3.38-1.817,3.38-4.323c0-1.885-0.942-4.254-3.334-4.254
		C582.976,424.158,581.94,426.365,581.94,428.458z"/>
	<path fill="#B09000" d="M593.303,426.343c0-1.312-0.023-2.438-0.092-3.472h1.771l0.092,2.207h0.069
		c0.506-1.494,1.747-2.438,3.104-2.438c0.207,0,0.368,0.023,0.553,0.046v1.909c-0.207-0.047-0.414-0.047-0.69-0.047
		c-1.426,0-2.438,1.059-2.713,2.576c-0.046,0.275-0.069,0.62-0.069,0.942V434h-2.023V426.343z"/>
	<path fill="#B09000" d="M601.721,428.803c0.046,2.736,1.771,3.863,3.816,3.863c1.449,0,2.346-0.252,3.082-0.574l0.368,1.448
		c-0.713,0.321-1.955,0.713-3.726,0.713c-3.427,0-5.473-2.276-5.473-5.634s1.978-5.979,5.22-5.979c3.656,0,4.599,3.174,4.599,5.22
		c0,0.414-0.022,0.713-0.068,0.942H601.721z M607.653,427.354c0.022-1.265-0.529-3.265-2.806-3.265
		c-2.069,0-2.943,1.861-3.104,3.265H607.653z"/>
	<path fill="#B09000" d="M626.305,426.365c0,5.082-1.908,7.888-5.196,7.888c-2.921,0-4.921-2.736-4.967-7.681
		c0-5.035,2.185-7.771,5.22-7.771C624.488,418.801,626.305,421.605,626.305,426.365z M618.188,426.596
		c0,3.887,1.196,6.094,3.036,6.094c2.046,0,3.035-2.414,3.035-6.232c0-3.679-0.92-6.094-3.035-6.094
		C619.476,420.363,618.188,422.525,618.188,426.596z"/>
	<path fill="#B09000" d="M633.481,427.056v1.472h-5.68v-1.472H633.481z"/>
	<path fill="#B09000" d="M635.69,431.701c0.575,0.344,1.886,0.919,3.312,0.919c2.575,0,3.403-1.632,3.38-2.897
		c-0.022-2.092-1.908-2.989-3.863-2.989h-1.126v-1.518h1.126c1.472,0,3.335-0.759,3.335-2.529c0-1.196-0.759-2.253-2.622-2.253
		c-1.195,0-2.345,0.528-2.989,0.988l-0.552-1.472c0.805-0.575,2.322-1.149,3.933-1.149c2.943,0,4.276,1.747,4.276,3.564
		c0,1.563-0.942,2.873-2.759,3.541v0.045c1.839,0.346,3.311,1.725,3.334,3.818c0,2.391-1.886,4.483-5.45,4.483
		c-1.679,0-3.15-0.528-3.886-1.012L635.69,431.701z"/>
	<path fill="#B09000" d="M654.527,427.975h0.046c0.275-0.391,0.644-0.873,0.966-1.264l3.288-3.84h2.414l-4.277,4.575l4.898,6.554
		h-2.483l-3.817-5.335l-1.034,1.149V434h-2.001v-16.326h2.001V427.975z"/>
	<path fill="#B09000" d="M663.704,425.883c0-1.173-0.046-2.093-0.092-3.012h1.771l0.092,1.816h0.069
		c0.62-1.059,1.655-2.047,3.518-2.047c1.495,0,2.645,0.92,3.128,2.23h0.046c0.345-0.645,0.805-1.104,1.265-1.449
		c0.667-0.506,1.38-0.781,2.438-0.781c1.494,0,3.679,0.966,3.679,4.828V434h-1.978v-6.277c0-2.162-0.805-3.427-2.414-3.427
		c-1.173,0-2.047,0.851-2.415,1.817c-0.092,0.299-0.16,0.643-0.16,1.012V434h-1.978v-6.668c0-1.771-0.782-3.036-2.323-3.036
		c-1.241,0-2.185,1.013-2.506,2.024c-0.115,0.275-0.161,0.643-0.161,0.988V434h-1.978V425.883z"/>
	<path d="M524.724,458.864h-0.056c-0.868,1.315-2.24,2.044-4.088,2.044c-2.968,0-5.656-2.633-5.656-6.973
		c0-4.928,3.108-7.363,6.048-7.363c1.765,0,3.053,0.645,3.836,1.932l0.057,0.028l0.111-1.624h4.088
		c-0.027,1.344-0.084,2.688-0.084,4.115v15.121h-4.256V458.864z M524.724,452.648c0-0.252-0.027-0.477-0.084-0.7
		c-0.224-1.093-1.147-2.044-2.464-2.044c-1.932,0-2.939,1.652-2.939,3.863c0,2.269,1.12,3.781,2.912,3.781
		c1.203,0,2.184-0.813,2.464-1.933c0.084-0.28,0.111-0.644,0.111-0.925V452.648z"/>
	<path d="M545.275,456.204c0,1.792,0.056,3.248,0.111,4.396h-3.695l-0.196-1.932h-0.084c-0.532,0.84-1.82,2.24-4.284,2.24
		c-2.8,0-4.815-1.736-4.815-5.964v-8.036h4.256v7.363c0,1.988,0.644,3.192,2.155,3.192c1.177,0,1.877-0.812,2.129-1.483
		c0.111-0.252,0.168-0.561,0.168-0.924v-8.148h4.256V456.204z"/>
	<path d="M560.087,457.296c0,1.288,0.057,2.548,0.225,3.304h-3.836l-0.252-1.371h-0.084c-0.896,1.092-2.296,1.68-3.92,1.68
		c-2.772,0-4.425-2.016-4.425-4.2c0-3.556,3.192-5.235,8.036-5.235v-0.168c0-0.756-0.392-1.793-2.491-1.793
		c-1.4,0-2.885,0.477-3.78,1.037l-0.784-2.744c0.952-0.533,2.828-1.232,5.32-1.232c4.563,0,5.991,2.688,5.991,5.936V457.296z
		 M555.972,454.133c-2.24,0-3.977,0.531-3.977,2.155c0,1.092,0.729,1.624,1.681,1.624c1.035,0,1.932-0.7,2.212-1.568
		c0.056-0.224,0.084-0.476,0.084-0.728V454.133z"/>
	<path d="M563.476,451.416c0-2.016-0.028-3.332-0.112-4.508h3.641l0.168,2.52h0.111c0.7-2.016,2.353-2.855,3.696-2.855
		c0.392,0,0.588,0.027,0.896,0.084v4.004c-0.337-0.057-0.673-0.111-1.148-0.111c-1.568,0-2.632,0.84-2.912,2.155
		c-0.056,0.28-0.084,0.616-0.084,0.952v6.943h-4.256V451.416z"/>
	<path d="M578.287,452.676h0.056c0.309-0.588,0.645-1.147,0.98-1.652l2.771-4.115h5.124l-4.899,5.544l5.6,8.147h-5.235l-3.332-5.627
		l-1.064,1.344v4.283h-4.256v-19.879h4.256V452.676z"/>
	<path d="M607.827,458.612c0,2.632-0.532,4.788-2.1,6.159c-1.484,1.289-3.528,1.681-5.544,1.681c-1.82,0-3.696-0.364-4.929-1.036
		l0.841-3.248c0.867,0.504,2.352,1.036,3.976,1.036c2.016,0,3.556-1.063,3.556-3.612v-0.867h-0.056
		c-0.813,1.119-2.128,1.764-3.696,1.764c-3.388,0-5.796-2.744-5.796-6.664c0-4.424,2.828-7.225,6.216-7.225
		c1.876,0,3.053,0.813,3.752,1.961h0.057l0.14-1.652h3.696c-0.057,0.896-0.112,2.044-0.112,4.088V458.612z M603.571,452.48
		c0-0.252-0.028-0.532-0.084-0.784c-0.308-1.12-1.12-1.876-2.296-1.876c-1.568,0-2.8,1.4-2.8,3.892c0,2.044,1.008,3.64,2.771,3.64
		c1.12,0,1.988-0.728,2.269-1.707c0.111-0.336,0.14-0.784,0.14-1.148V452.48z"/>
	<path d="M611.243,440.721h4.256V460.6h-4.256V440.721z"/>
	<path d="M631.851,456.204c0,1.792,0.056,3.248,0.111,4.396h-3.695l-0.196-1.932h-0.084c-0.532,0.84-1.82,2.24-4.284,2.24
		c-2.8,0-4.815-1.736-4.815-5.964v-8.036h4.256v7.363c0,1.988,0.644,3.192,2.156,3.192c1.176,0,1.876-0.812,2.128-1.483
		c0.111-0.252,0.168-0.561,0.168-0.924v-8.148h4.256V456.204z"/>
	<path d="M648.791,453.6c0,5.013-3.557,7.309-7.225,7.309c-4.004,0-7.084-2.633-7.084-7.057c0-4.451,2.912-7.279,7.336-7.279
		C645.99,446.572,648.791,449.456,648.791,453.6z M638.879,453.74c0,2.352,0.979,4.115,2.8,4.115c1.68,0,2.716-1.651,2.716-4.144
		c0-2.016-0.784-4.088-2.716-4.088C639.662,449.624,638.879,451.725,638.879,453.74z"/>
	<path d="M651.422,451.276c0-1.708-0.056-3.136-0.112-4.368h3.696l0.196,1.904h0.084c0.56-0.896,1.932-2.213,4.228-2.213
		c2.8,0,4.9,1.877,4.9,5.908v8.092h-4.256v-7.588c0-1.764-0.616-2.968-2.156-2.968c-1.176,0-1.876,0.812-2.185,1.597
		c-0.111,0.279-0.14,0.672-0.14,1.063v7.896h-4.256V451.276z"/>
	<path d="M673.486,451.5c0-1.792-0.056-3.304-0.112-4.592h3.696l0.196,1.904h0.056c1.008-1.428,2.576-2.213,4.564-2.213
		c2.995,0,5.684,2.604,5.684,6.973c0,4.984-3.164,7.336-6.216,7.336c-1.652,0-2.94-0.672-3.557-1.568h-0.056v6.805h-4.256V451.5z
		 M677.742,454.721c0,0.336,0.028,0.615,0.084,0.896c0.28,1.147,1.26,2.017,2.492,2.017c1.848,0,2.939-1.541,2.939-3.865
		c0-2.184-0.979-3.836-2.884-3.836c-1.204,0-2.268,0.896-2.548,2.156c-0.056,0.225-0.084,0.504-0.084,0.756V454.721z"/>
	<path d="M690.229,440.721h4.256V460.6h-4.256V440.721z"/>
	<path d="M709.325,457.296c0,1.288,0.057,2.548,0.225,3.304h-3.836l-0.252-1.371h-0.084c-0.896,1.092-2.296,1.68-3.92,1.68
		c-2.772,0-4.425-2.016-4.425-4.2c0-3.556,3.192-5.235,8.036-5.235v-0.168c0-0.756-0.392-1.793-2.491-1.793
		c-1.4,0-2.885,0.477-3.78,1.037l-0.784-2.744c0.952-0.533,2.828-1.232,5.32-1.232c4.563,0,5.991,2.688,5.991,5.936V457.296z
		 M705.21,454.133c-2.24,0-3.977,0.531-3.977,2.155c0,1.092,0.729,1.624,1.681,1.624c1.035,0,1.932-0.7,2.212-1.568
		c0.056-0.224,0.084-0.476,0.084-0.728V454.133z"/>
	<path d="M712.686,456.904c0.784,0.476,2.408,1.008,3.668,1.008c1.288,0,1.82-0.42,1.82-1.12c0-0.728-0.42-1.063-1.988-1.596
		c-2.855-0.952-3.947-2.492-3.92-4.116c0-2.576,2.185-4.508,5.572-4.508c1.596,0,2.996,0.393,3.836,0.813l-0.728,2.939
		c-0.616-0.336-1.82-0.784-2.969-0.784c-1.036,0-1.624,0.42-1.624,1.093c0,0.672,0.532,1.008,2.212,1.596
		c2.604,0.896,3.668,2.24,3.696,4.228c0,2.576-1.988,4.452-5.908,4.452c-1.792,0-3.388-0.42-4.424-0.98L712.686,456.904z"/>
	<path d="M724.865,451.276c0-1.708-0.056-3.136-0.112-4.368h3.612l0.168,1.848h0.084c0.588-0.896,1.82-2.184,4.144-2.184
		c1.792,0,3.164,0.924,3.752,2.352h0.057c0.532-0.728,1.12-1.287,1.792-1.68c0.756-0.42,1.596-0.672,2.604-0.672
		c2.632,0,4.62,1.848,4.62,5.964v8.063h-4.144v-7.447c0-1.988-0.645-3.137-2.017-3.137c-1.008,0-1.68,0.672-1.987,1.484
		c-0.084,0.309-0.141,0.729-0.141,1.092v8.008h-4.144V452.9c0-1.708-0.616-2.885-1.988-2.885c-1.092,0-1.735,0.84-1.988,1.513
		c-0.14,0.336-0.168,0.728-0.168,1.092v7.979h-4.144V451.276z"/>
	<path d="M760.341,457.296c0,1.288,0.057,2.548,0.225,3.304h-3.836l-0.252-1.371h-0.084c-0.896,1.092-2.296,1.68-3.92,1.68
		c-2.772,0-4.425-2.016-4.425-4.2c0-3.556,3.192-5.235,8.036-5.235v-0.168c0-0.756-0.392-1.793-2.491-1.793
		c-1.4,0-2.885,0.477-3.78,1.037l-0.784-2.744c0.952-0.533,2.828-1.232,5.32-1.232c4.563,0,5.991,2.688,5.991,5.936V457.296z
		 M756.226,454.133c-2.24,0-3.977,0.531-3.977,2.155c0,1.092,0.729,1.624,1.681,1.624c1.035,0,1.932-0.7,2.212-1.568
		c0.056-0.224,0.084-0.476,0.084-0.728V454.133z"/>
	<path d="M765.886,454.469l-0.028-0.729c-0.084-1.428,0.392-2.885,1.652-4.368c0.896-1.092,1.624-2.017,1.624-2.94
		c0-0.979-0.645-1.651-2.044-1.68c-0.925,0-2.044,0.336-2.772,0.84l-0.952-3.052c1.036-0.588,2.688-1.147,4.676-1.147
		c3.696,0,5.404,2.043,5.404,4.367c0,2.129-1.344,3.528-2.408,4.705c-1.008,1.147-1.456,2.239-1.428,3.5v0.504H765.886z
		 M765.157,458.36c0-1.513,1.036-2.548,2.492-2.548c1.512,0,2.492,1.035,2.521,2.548c0,1.456-0.98,2.548-2.521,2.548
		C766.165,460.908,765.157,459.816,765.157,458.36z"/>
</g>
<g opacity="0.8">
	<path fill="#FFFFFF" d="M268.544,113.412c0,4.829-1.886,7.841-5.473,7.841c-3.426,0-5.266-3.127-5.289-7.68
		c0-4.668,1.978-7.772,5.473-7.772C266.865,105.8,268.544,109.02,268.544,113.412z M260.633,113.55c0,3.656,0.989,5.542,2.529,5.542
		c1.679,0,2.529-2.023,2.529-5.611c0-3.472-0.805-5.519-2.506-5.519C261.691,107.962,260.633,109.824,260.633,113.55z"/>
	<path fill="#FFFFFF" d="M270.501,119.437c0-1.058,0.735-1.817,1.747-1.817c1.035,0,1.748,0.736,1.748,1.817
		c0,1.035-0.689,1.816-1.771,1.816C271.214,121.253,270.501,120.471,270.501,119.437z"/>
	<path fill="#FFFFFF" d="M276.319,118.08c0.575,0.345,1.978,0.92,3.403,0.92c2.162,0,3.013-1.219,3.013-2.392
		c0-1.771-1.679-2.529-3.403-2.529h-1.288v-2.07h1.288c1.287,0,2.943-0.598,2.943-2.069c0-1.035-0.736-1.886-2.392-1.886
		c-1.219,0-2.438,0.529-3.059,0.943l-0.644-2.046c0.851-0.575,2.529-1.15,4.3-1.15c3.104,0,4.668,1.702,4.668,3.656
		c0,1.563-0.92,2.852-2.759,3.495v0.046c1.816,0.345,3.265,1.702,3.288,3.726c0,2.529-2.116,4.53-5.818,4.53
		c-1.816,0-3.38-0.506-4.185-1.035L276.319,118.08z"/>
	<path fill="#FFFFFF" d="M293.638,113.895v1.955h-5.864v-1.955H293.638z"/>
	<path fill="#FFFFFF" d="M305.872,113.412c0,4.829-1.886,7.841-5.474,7.841c-3.426,0-5.266-3.127-5.288-7.68
		c0-4.668,1.978-7.772,5.473-7.772C304.193,105.8,305.872,109.02,305.872,113.412z M297.961,113.55c0,3.656,0.989,5.542,2.53,5.542
		c1.678,0,2.529-2.023,2.529-5.611c0-3.472-0.805-5.519-2.507-5.519C299.02,107.962,297.961,109.824,297.961,113.55z"/>
	<path fill="#FFFFFF" d="M307.829,119.437c0-1.058,0.735-1.817,1.747-1.817c1.035,0,1.748,0.736,1.748,1.817
		c0,1.035-0.689,1.816-1.771,1.816C308.542,121.253,307.829,120.471,307.829,119.437z"/>
	<path fill="#FFFFFF" d="M322.593,108.399h-5.749l-0.437,2.989c0.321-0.046,0.621-0.069,1.058-0.069
		c1.311,0,2.645,0.299,3.633,0.965c1.127,0.713,1.955,1.978,1.955,3.794c0,2.852-2.368,5.174-6.024,5.174
		c-1.748,0-3.196-0.437-3.979-0.874l0.575-2.138c0.644,0.345,1.932,0.782,3.288,0.782c1.655,0,3.242-0.943,3.242-2.713
		c0-1.725-1.265-2.852-4.231-2.852c-0.851,0-1.472,0.069-2.046,0.138l0.966-7.542h7.749V108.399z"/>
	<path fill="#FFFFFF" d="M333.427,119.919v1.586c0,1.311,0.023,3.15,0.161,4.047h-2.736c-0.184-0.621-0.253-2.346-0.253-4.001
		v-5.128c0-3.104,0.92-4.484,1.908-5.404c0.966-0.896,2.208-1.472,3.817-1.472c3.242,0,5.357,2.323,5.357,5.749
		c0,3.955-2.598,5.956-5.174,5.956c-1.333,0-2.438-0.506-3.035-1.333H333.427z M333.427,116.562c0,0.276,0.023,0.483,0.069,0.736
		c0.299,0.943,1.287,1.771,2.483,1.771c1.794,0,2.828-1.586,2.828-3.725c0-1.955-0.966-3.472-2.667-3.472
		c-1.426,0-2.714,1.219-2.714,3.794V116.562z"/>
	<path fill="#FFFFFF" d="M349.521,120.377c0,2.942-1.149,4.777-3.334,4.777c-2.087,0-3.208-1.905-3.222-4.679
		c0-2.844,1.204-4.734,3.333-4.734C348.498,115.741,349.521,117.702,349.521,120.377z M344.702,120.461
		c0,2.228,0.603,3.376,1.541,3.376c1.022,0,1.541-1.233,1.541-3.418c0-2.115-0.49-3.362-1.527-3.362
		C345.347,117.058,344.702,118.192,344.702,120.461z"/>
</g>
<g opacity="0.8">
	<path fill="#FFFFFF" d="M268.544,189.412c0,4.829-1.886,7.841-5.473,7.841c-3.426,0-5.266-3.127-5.289-7.68
		c0-4.668,1.978-7.772,5.473-7.772C266.865,181.8,268.544,185.02,268.544,189.412z M260.633,189.55c0,3.656,0.989,5.542,2.529,5.542
		c1.679,0,2.529-2.023,2.529-5.611c0-3.472-0.805-5.519-2.506-5.519C261.691,183.962,260.633,185.824,260.633,189.55z"/>
	<path fill="#FFFFFF" d="M270.501,195.437c0-1.058,0.735-1.817,1.747-1.817c1.035,0,1.748,0.736,1.748,1.817
		c0,1.035-0.689,1.816-1.771,1.816C271.214,197.253,270.501,196.471,270.501,195.437z"/>
	<path fill="#FFFFFF" d="M285.265,184.399h-5.749l-0.437,2.989c0.321-0.046,0.621-0.069,1.058-0.069
		c1.311,0,2.645,0.299,3.633,0.965c1.127,0.713,1.955,1.978,1.955,3.794c0,2.852-2.368,5.174-6.024,5.174
		c-1.748,0-3.196-0.437-3.979-0.874l0.575-2.138c0.644,0.345,1.932,0.782,3.288,0.782c1.655,0,3.242-0.943,3.242-2.713
		c0-1.725-1.265-2.852-4.231-2.852c-0.851,0-1.472,0.069-2.046,0.138l0.966-7.542h7.749V184.399z"/>
	<path fill="#FFFFFF" d="M293.638,189.895v1.955h-5.864v-1.955H293.638z"/>
	<path fill="#FFFFFF" d="M295.317,197v-1.725l1.771-1.633c3.518-3.265,5.174-5.059,5.196-7.036c0-1.334-0.713-2.507-2.667-2.507
		c-1.334,0-2.438,0.667-3.196,1.242l-0.828-2c1.081-0.874,2.714-1.541,4.599-1.541c3.312,0,4.921,2.093,4.921,4.53
		c0,2.622-1.885,4.737-4.507,7.152l-1.287,1.126v0.046h6.116V197H295.317z"/>
	<path fill="#FFFFFF" d="M307.829,195.437c0-1.058,0.735-1.817,1.747-1.817c1.035,0,1.748,0.736,1.748,1.817
		c0,1.035-0.689,1.816-1.771,1.816C308.542,197.253,307.829,196.471,307.829,195.437z"/>
	<path fill="#FFFFFF" d="M323.628,189.412c0,4.829-1.886,7.841-5.474,7.841c-3.426,0-5.266-3.127-5.288-7.68
		c0-4.668,1.978-7.772,5.473-7.772C321.949,181.8,323.628,185.02,323.628,189.412z M315.717,189.55c0,3.656,0.989,5.542,2.53,5.542
		c1.678,0,2.529-2.023,2.529-5.611c0-3.472-0.805-5.519-2.507-5.519C316.775,183.962,315.717,185.824,315.717,189.55z"/>
	<path fill="#FFFFFF" d="M333.427,195.919v1.586c0,1.311,0.023,3.15,0.161,4.047h-2.736c-0.184-0.621-0.253-2.346-0.253-4.001
		v-5.128c0-3.104,0.92-4.484,1.908-5.404c0.966-0.896,2.208-1.472,3.817-1.472c3.242,0,5.357,2.323,5.357,5.749
		c0,3.955-2.598,5.956-5.174,5.956c-1.333,0-2.438-0.506-3.035-1.333H333.427z M333.427,192.562c0,0.276,0.023,0.483,0.069,0.736
		c0.299,0.943,1.287,1.771,2.483,1.771c1.794,0,2.828-1.586,2.828-3.725c0-1.955-0.966-3.472-2.667-3.472
		c-1.426,0-2.714,1.219-2.714,3.794V192.562z"/>
	<path fill="#FFFFFF" d="M349.521,196.377c0,2.942-1.149,4.777-3.334,4.777c-2.087,0-3.208-1.905-3.222-4.679
		c0-2.844,1.204-4.734,3.333-4.734C348.498,191.741,349.521,193.702,349.521,196.377z M344.702,196.461
		c0,2.228,0.603,3.376,1.541,3.376c1.022,0,1.541-1.233,1.541-3.418c0-2.115-0.49-3.362-1.527-3.362
		C345.347,193.058,344.702,194.192,344.702,196.461z"/>
</g>
<g opacity="0.8">
	<path fill="#FFFFFF" d="M269.303,251.583l-10.9,5.243v-2.046l8.784-4.047v-0.046l-8.784-4.047v-2.046l10.9,5.243V251.583z"/>
	<path fill="#FFFFFF" d="M271.697,256.825v-1.725l1.771-1.633c3.518-3.265,5.174-5.059,5.196-7.036c0-1.334-0.713-2.507-2.667-2.507
		c-1.334,0-2.438,0.667-3.196,1.242l-0.828-2c1.081-0.874,2.714-1.541,4.599-1.541c3.312,0,4.921,2.093,4.921,4.53
		c0,2.622-1.885,4.737-4.507,7.152l-1.287,1.126v0.046h6.116v2.346H271.697z"/>
	<path fill="#FFFFFF" d="M284.209,255.262c0-1.058,0.735-1.817,1.747-1.817c1.035,0,1.748,0.736,1.748,1.817
		c0,1.035-0.689,1.816-1.771,1.816C284.922,257.078,284.209,256.296,284.209,255.262z"/>
	<path fill="#FFFFFF" d="M300.008,249.237c0,4.829-1.886,7.841-5.474,7.841c-3.426,0-5.266-3.127-5.288-7.68
		c0-4.668,1.978-7.772,5.473-7.772C298.329,241.625,300.008,244.845,300.008,249.237z M292.097,249.375
		c0,3.656,0.989,5.542,2.53,5.542c1.678,0,2.529-2.023,2.529-5.611c0-3.472-0.805-5.519-2.507-5.519
		C293.155,243.787,292.097,245.649,292.097,249.375z"/>
	<path fill="#FFFFFF" d="M309.806,255.745v1.586c0,1.311,0.023,3.15,0.161,4.047h-2.736c-0.184-0.621-0.253-2.346-0.253-4.001
		v-5.128c0-3.104,0.92-4.484,1.908-5.404c0.966-0.896,2.208-1.472,3.817-1.472c3.242,0,5.357,2.323,5.357,5.749
		c0,3.955-2.598,5.956-5.174,5.956c-1.333,0-2.438-0.506-3.035-1.333H309.806z M309.806,252.387c0,0.276,0.023,0.483,0.069,0.736
		c0.299,0.943,1.287,1.771,2.483,1.771c1.794,0,2.828-1.586,2.828-3.725c0-1.955-0.966-3.472-2.667-3.472
		c-1.426,0-2.714,1.219-2.714,3.794V252.387z"/>
	<path fill="#FFFFFF" d="M325.901,256.203c0,2.942-1.149,4.777-3.334,4.777c-2.087,0-3.208-1.905-3.222-4.679
		c0-2.844,1.204-4.734,3.334-4.734C324.878,251.566,325.901,253.527,325.901,256.203z M321.082,256.287
		c0,2.228,0.603,3.376,1.541,3.376c1.022,0,1.541-1.233,1.541-3.418c0-2.115-0.49-3.362-1.527-3.362
		C321.727,252.883,321.082,254.018,321.082,256.287z"/>
</g>
<g>
	<g>
		<line fill="none" stroke="#640000" stroke-width="3" stroke-miterlimit="10" x1="427.265" y1="104.096" x2="491.784" y2="84"/>
		<g>
			<polygon fill="#640000" points="435.423,110.3 401.781,111.656 430.239,93.657 			"/>
		</g>
	</g>
</g>
<g>
	<g>
		
			<line fill="none" stroke="#640000" stroke-width="3" stroke-miterlimit="10" x1="433.619" y1="189.555" x2="496.76" y2="189.555"/>
		<g>
			<polygon fill="#640000" points="439.563,197.904 407.041,189.194 439.563,180.473 			"/>
		</g>
	</g>
</g>
</svg>
